<?xml version="1.0" standalone="no"?>
<!DOCTYPE svg PUBLIC "-//W3C//DTD SVG 1.1//EN" "http://www.w3.org/Graphics/SVG/1.1/DTD/svg11.dtd" >
<svg>
<metadata>
Created by FontForge 20090914 at Thu Feb 23 22:26:20 2012
 By root
by FR 2003. All Rights Reserved
</metadata>
<defs>
<font id="Autobahnen" horiz-adv-x="1024" >
  <font-face 
    font-family="Autobahnen"
    font-weight="700"
    font-stretch="normal"
    units-per-em="2048"
    panose-1="2 0 8 0 0 0 0 0 0 0"
    ascent="1638"
    descent="-410"
    x-height="1812"
    cap-height="2316"
    bbox="-38 -110 3453 2326"
    underline-thickness="150"
    underline-position="-142"
    unicode-range="U+000D-U+02C7"
  />
<missing-glyph 
d="M129 0v1812h768v-1812h-768zM256 129h512v1557h-512v-1557z" />
    <glyph glyph-name=".notdef" unicode="&#x2c7;" 
d="M129 0v1812h768v-1812h-768zM256 129h512v1557h-512v-1557z" />
    <glyph glyph-name=".notdef" unicode="&#x2db;" 
d="M129 0v1812h768v-1812h-768zM256 129h512v1557h-512v-1557z" />
    <glyph glyph-name=".notdef" unicode="&#x2dd;" 
d="M129 0v1812h768v-1812h-768zM256 129h512v1557h-512v-1557z" />
    <glyph glyph-name=".notdef" unicode="&#xb8;" 
d="M129 0v1812h768v-1812h-768zM256 129h512v1557h-512v-1557z" />
    <glyph glyph-name=".notdef" unicode="&#x2da;" 
d="M129 0v1812h768v-1812h-768zM256 129h512v1557h-512v-1557z" />
    <glyph glyph-name=".notdef" unicode="&#x2d9;" 
d="M129 0v1812h768v-1812h-768zM256 129h512v1557h-512v-1557z" />
    <glyph glyph-name=".notdef" unicode="&#x2d8;" 
d="M129 0v1812h768v-1812h-768zM256 129h512v1557h-512v-1557z" />
    <glyph glyph-name=".notdef" unicode="&#xaf;" 
d="M129 0v1812h768v-1812h-768zM256 129h512v1557h-512v-1557z" />
    <glyph glyph-name=".notdef" unicode="&#x2dc;" 
d="M129 0v1812h768v-1812h-768zM256 129h512v1557h-512v-1557z" />
    <glyph glyph-name=".notdef" unicode="&#x2c6;" 
d="M129 0v1812h768v-1812h-768zM256 129h512v1557h-512v-1557z" />
    <glyph glyph-name=".notdef" unicode="&#x131;" 
d="M129 0v1812h768v-1812h-768zM256 129h512v1557h-512v-1557z" />
    <glyph glyph-name=".notdef" unicode="&#xd9;" 
d="M129 0v1812h768v-1812h-768zM256 129h512v1557h-512v-1557z" />
    <glyph glyph-name=".notdef" unicode="&#xdb;" 
d="M129 0v1812h768v-1812h-768zM256 129h512v1557h-512v-1557z" />
    <glyph glyph-name=".notdef" unicode="&#xda;" 
d="M129 0v1812h768v-1812h-768zM256 129h512v1557h-512v-1557z" />
    <glyph glyph-name=".notdef" unicode="&#xd2;" 
d="M129 0v1812h768v-1812h-768zM256 129h512v1557h-512v-1557z" />
    <glyph glyph-name=".notdef" unicode="&#xe01e;" 
d="M129 0v1812h768v-1812h-768zM256 129h512v1557h-512v-1557z" />
    <glyph glyph-name=".notdef" unicode="&#xd4;" 
d="M129 0v1812h768v-1812h-768zM256 129h512v1557h-512v-1557z" />
    <glyph glyph-name=".notdef" unicode="&#xd3;" 
d="M129 0v1812h768v-1812h-768zM256 129h512v1557h-512v-1557z" />
    <glyph glyph-name=".notdef" unicode="&#xcc;" 
d="M129 0v1812h768v-1812h-768zM256 129h512v1557h-512v-1557z" />
    <glyph glyph-name=".notdef" unicode="&#xcf;" 
d="M129 0v1812h768v-1812h-768zM256 129h512v1557h-512v-1557z" />
    <glyph glyph-name=".notdef" unicode="&#xce;" 
d="M129 0v1812h768v-1812h-768zM256 129h512v1557h-512v-1557z" />
    <glyph glyph-name=".notdef" unicode="&#xcd;" 
d="M129 0v1812h768v-1812h-768zM256 129h512v1557h-512v-1557z" />
    <glyph glyph-name=".notdef" unicode="&#xc8;" 
d="M129 0v1812h768v-1812h-768zM256 129h512v1557h-512v-1557z" />
    <glyph glyph-name=".notdef" unicode="&#xcb;" 
d="M129 0v1812h768v-1812h-768zM256 129h512v1557h-512v-1557z" />
    <glyph glyph-name=".notdef" unicode="&#xc1;" 
d="M129 0v1812h768v-1812h-768zM256 129h512v1557h-512v-1557z" />
    <glyph glyph-name=".notdef" unicode="&#xca;" 
d="M129 0v1812h768v-1812h-768zM256 129h512v1557h-512v-1557z" />
    <glyph glyph-name=".notdef" unicode="&#xc2;" 
d="M129 0v1812h768v-1812h-768zM256 129h512v1557h-512v-1557z" />
    <glyph glyph-name=".notdef" unicode="&#x2030;" 
d="M129 0v1812h768v-1812h-768zM256 129h512v1557h-512v-1557z" />
    <glyph glyph-name=".notdef" unicode="&#x201e;" 
d="M129 0v1812h768v-1812h-768zM256 129h512v1557h-512v-1557z" />
    <glyph glyph-name=".notdef" unicode="&#x201a;" 
d="M129 0v1812h768v-1812h-768zM256 129h512v1557h-512v-1557z" />
    <glyph glyph-name=".notdef" unicode="&#x2021;" 
d="M129 0v1812h768v-1812h-768zM256 129h512v1557h-512v-1557z" />
    <glyph glyph-name=".notdef" unicode="&#xfb02;" 
d="M129 0v1812h768v-1812h-768zM256 129h512v1557h-512v-1557z" />
    <glyph glyph-name=".notdef" unicode="&#xfb01;" 
d="M129 0v1812h768v-1812h-768zM256 129h512v1557h-512v-1557z" />
    <glyph glyph-name=".notdef" unicode="&#x203a;" 
d="M129 0v1812h768v-1812h-768zM256 129h512v1557h-512v-1557z" />
    <glyph glyph-name=".notdef" unicode="&#x2039;" 
d="M129 0v1812h768v-1812h-768zM256 129h512v1557h-512v-1557z" />
    <glyph glyph-name=".notdef" unicode="&#x20ac;" 
d="M129 0v1812h768v-1812h-768zM256 129h512v1557h-512v-1557z" />
    <glyph glyph-name=".notdef" unicode="&#x2044;" 
d="M129 0v1812h768v-1812h-768zM256 129h512v1557h-512v-1557z" />
    <glyph glyph-name=".notdef" unicode="&#x178;" 
d="M129 0v1812h768v-1812h-768zM256 129h512v1557h-512v-1557z" />
    <glyph glyph-name=".notdef" unicode="&#xff;" 
d="M129 0v1812h768v-1812h-768zM256 129h512v1557h-512v-1557z" />
    <glyph glyph-name=".notdef" unicode="&#x25ca;" 
d="M129 0v1812h768v-1812h-768zM256 129h512v1557h-512v-1557z" />
    <glyph glyph-name=".notdef" unicode="&#xf7;" 
d="M129 0v1812h768v-1812h-768zM256 129h512v1557h-512v-1557z" />
    <glyph glyph-name=".notdef" unicode="&#x2019;" 
d="M129 0v1812h768v-1812h-768zM256 129h512v1557h-512v-1557z" />
    <glyph glyph-name=".notdef" unicode="&#x2018;" 
d="M129 0v1812h768v-1812h-768zM256 129h512v1557h-512v-1557z" />
    <glyph glyph-name=".notdef" unicode="&#x201d;" 
d="M129 0v1812h768v-1812h-768zM256 129h512v1557h-512v-1557z" />
    <glyph glyph-name=".notdef" unicode="&#x201c;" 
d="M129 0v1812h768v-1812h-768zM256 129h512v1557h-512v-1557z" />
    <glyph glyph-name=".notdef" unicode="&#x2014;" 
d="M129 0v1812h768v-1812h-768zM256 129h512v1557h-512v-1557z" />
    <glyph glyph-name=".notdef" unicode="&#x2013;" 
d="M129 0v1812h768v-1812h-768zM256 129h512v1557h-512v-1557z" />
    <glyph glyph-name=".notdef" unicode="&#x153;" 
d="M129 0v1812h768v-1812h-768zM256 129h512v1557h-512v-1557z" />
    <glyph glyph-name=".notdef" unicode="&#x152;" 
d="M129 0v1812h768v-1812h-768zM256 129h512v1557h-512v-1557z" />
    <glyph glyph-name=".notdef" unicode="&#xd5;" 
d="M129 0v1812h768v-1812h-768zM256 129h512v1557h-512v-1557z" />
    <glyph glyph-name=".notdef" unicode="&#xc3;" 
d="M129 0v1812h768v-1812h-768zM256 129h512v1557h-512v-1557z" />
    <glyph glyph-name=".notdef" unicode="&#xc0;" 
d="M129 0v1812h768v-1812h-768zM256 129h512v1557h-512v-1557z" />
    <glyph glyph-name=".notdef" unicode="&#x2026;" 
d="M129 0v1812h768v-1812h-768zM256 129h512v1557h-512v-1557z" />
    <glyph glyph-name=".notdef" unicode="&#xbb;" 
d="M129 0v1812h768v-1812h-768zM256 129h512v1557h-512v-1557z" />
    <glyph glyph-name=".notdef" unicode="&#xab;" 
d="M129 0v1812h768v-1812h-768zM256 129h512v1557h-512v-1557z" />
    <glyph glyph-name=".notdef" unicode="&#x394;" 
d="M129 0v1812h768v-1812h-768zM256 129h512v1557h-512v-1557z" />
    <glyph glyph-name=".notdef" unicode="&#x2248;" 
d="M129 0v1812h768v-1812h-768zM256 129h512v1557h-512v-1557z" />
    <glyph glyph-name=".notdef" unicode="&#x192;" 
d="M129 0v1812h768v-1812h-768zM256 129h512v1557h-512v-1557z" />
    <glyph glyph-name=".notdef" unicode="&#x221a;" 
d="M129 0v1812h768v-1812h-768zM256 129h512v1557h-512v-1557z" />
    <glyph glyph-name=".notdef" unicode="&#xac;" 
d="M129 0v1812h768v-1812h-768zM256 129h512v1557h-512v-1557z" />
    <glyph glyph-name=".notdef" unicode="&#xa1;" 
d="M129 0v1812h768v-1812h-768zM256 129h512v1557h-512v-1557z" />
    <glyph glyph-name=".notdef" unicode="&#xbf;" 
d="M129 0v1812h768v-1812h-768zM256 129h512v1557h-512v-1557z" />
    <glyph glyph-name=".notdef" unicode="&#xf8;" 
d="M129 0v1812h768v-1812h-768zM256 129h512v1557h-512v-1557z" />
    <glyph glyph-name=".notdef" unicode="&#xe6;" 
d="M129 0v1812h768v-1812h-768zM256 129h512v1557h-512v-1557z" />
    <glyph glyph-name=".notdef" unicode="&#x3a9;" 
d="M129 0v1812h768v-1812h-768zM256 129h512v1557h-512v-1557z" />
    <glyph glyph-name=".notdef" unicode="&#xba;" 
d="M129 0v1812h768v-1812h-768zM256 129h512v1557h-512v-1557z" />
    <glyph glyph-name=".notdef" unicode="&#xaa;" 
d="M129 0v1812h768v-1812h-768zM256 129h512v1557h-512v-1557z" />
    <glyph glyph-name=".notdef" unicode="&#x222b;" 
d="M129 0v1812h768v-1812h-768zM256 129h512v1557h-512v-1557z" />
    <glyph glyph-name=".notdef" unicode="&#x3c0;" 
d="M129 0v1812h768v-1812h-768zM256 129h512v1557h-512v-1557z" />
    <glyph glyph-name=".notdef" unicode="&#x220f;" 
d="M129 0v1812h768v-1812h-768zM256 129h512v1557h-512v-1557z" />
    <glyph glyph-name=".notdef" unicode="&#x2211;" 
d="M129 0v1812h768v-1812h-768zM256 129h512v1557h-512v-1557z" />
    <glyph glyph-name=".notdef" unicode="&#x2202;" 
d="M129 0v1812h768v-1812h-768zM256 129h512v1557h-512v-1557z" />
    <glyph glyph-name=".notdef" unicode="&#xb5;" 
d="M129 0v1812h768v-1812h-768zM256 129h512v1557h-512v-1557z" />
    <glyph glyph-name=".notdef" unicode="&#xa5;" 
d="M129 0v1812h768v-1812h-768zM256 129h512v1557h-512v-1557z" />
    <glyph glyph-name=".notdef" unicode="&#x2265;" 
d="M129 0v1812h768v-1812h-768zM256 129h512v1557h-512v-1557z" />
    <glyph glyph-name=".notdef" unicode="&#x2264;" 
d="M129 0v1812h768v-1812h-768zM256 129h512v1557h-512v-1557z" />
    <glyph glyph-name=".notdef" unicode="&#xb1;" 
d="M129 0v1812h768v-1812h-768zM256 129h512v1557h-512v-1557z" />
    <glyph glyph-name=".notdef" unicode="&#x221e;" 
d="M129 0v1812h768v-1812h-768zM256 129h512v1557h-512v-1557z" />
    <glyph glyph-name=".notdef" unicode="&#xd8;" 
d="M129 0v1812h768v-1812h-768zM256 129h512v1557h-512v-1557z" />
    <glyph glyph-name=".notdef" unicode="&#xc6;" 
d="M129 0v1812h768v-1812h-768zM256 129h512v1557h-512v-1557z" />
    <glyph glyph-name=".notdef" unicode="&#x2260;" 
d="M129 0v1812h768v-1812h-768zM256 129h512v1557h-512v-1557z" />
    <glyph glyph-name=".notdef" unicode="&#xa8;" 
d="M129 0v1812h768v-1812h-768zM256 129h512v1557h-512v-1557z" />
    <glyph glyph-name=".notdef" unicode="&#xb4;" 
d="M129 0v1812h768v-1812h-768zM256 129h512v1557h-512v-1557z" />
    <glyph glyph-name=".notdef" unicode="&#x2122;" 
d="M129 0v1812h768v-1812h-768zM256 129h512v1557h-512v-1557z" />
    <glyph glyph-name=".notdef" unicode="&#xa9;" 
d="M129 0v1812h768v-1812h-768zM256 129h512v1557h-512v-1557z" />
    <glyph glyph-name=".notdef" unicode="&#xae;" 
d="M129 0v1812h768v-1812h-768zM256 129h512v1557h-512v-1557z" />
    <glyph glyph-name=".notdef" unicode="&#xdf;" 
d="M129 0v1812h768v-1812h-768zM256 129h512v1557h-512v-1557z" />
    <glyph glyph-name=".notdef" unicode="&#x2022;" 
d="M129 0v1812h768v-1812h-768zM256 129h512v1557h-512v-1557z" />
    <glyph glyph-name=".notdef" unicode="&#xa3;" 
d="M129 0v1812h768v-1812h-768zM256 129h512v1557h-512v-1557z" />
    <glyph glyph-name=".notdef" unicode="&#xa2;" 
d="M129 0v1812h768v-1812h-768zM256 129h512v1557h-512v-1557z" />
    <glyph glyph-name=".notdef" unicode="&#xb0;" 
d="M129 0v1812h768v-1812h-768zM256 129h512v1557h-512v-1557z" />
    <glyph glyph-name=".notdef" unicode="&#x2020;" 
d="M129 0v1812h768v-1812h-768zM256 129h512v1557h-512v-1557z" />
    <glyph glyph-name=".notdef" unicode="&#xfc;" 
d="M129 0v1812h768v-1812h-768zM256 129h512v1557h-512v-1557z" />
    <glyph glyph-name=".notdef" unicode="&#xfb;" 
d="M129 0v1812h768v-1812h-768zM256 129h512v1557h-512v-1557z" />
    <glyph glyph-name=".notdef" unicode="&#xf9;" 
d="M129 0v1812h768v-1812h-768zM256 129h512v1557h-512v-1557z" />
    <glyph glyph-name=".notdef" unicode="&#xfa;" 
d="M129 0v1812h768v-1812h-768zM256 129h512v1557h-512v-1557z" />
    <glyph glyph-name=".notdef" unicode="&#xf5;" 
d="M129 0v1812h768v-1812h-768zM256 129h512v1557h-512v-1557z" />
    <glyph glyph-name=".notdef" unicode="&#xf6;" 
d="M129 0v1812h768v-1812h-768zM256 129h512v1557h-512v-1557z" />
    <glyph glyph-name=".notdef" unicode="&#xf4;" 
d="M129 0v1812h768v-1812h-768zM256 129h512v1557h-512v-1557z" />
    <glyph glyph-name=".notdef" unicode="&#xf2;" 
d="M129 0v1812h768v-1812h-768zM256 129h512v1557h-512v-1557z" />
    <glyph glyph-name=".notdef" unicode="&#xf3;" 
d="M129 0v1812h768v-1812h-768zM256 129h512v1557h-512v-1557z" />
    <glyph glyph-name=".notdef" unicode="&#xf1;" 
d="M129 0v1812h768v-1812h-768zM256 129h512v1557h-512v-1557z" />
    <glyph glyph-name=".notdef" unicode="&#xef;" 
d="M129 0v1812h768v-1812h-768zM256 129h512v1557h-512v-1557z" />
    <glyph glyph-name=".notdef" unicode="&#xee;" 
d="M129 0v1812h768v-1812h-768zM256 129h512v1557h-512v-1557z" />
    <glyph glyph-name=".notdef" unicode="&#xec;" 
d="M129 0v1812h768v-1812h-768zM256 129h512v1557h-512v-1557z" />
    <glyph glyph-name=".notdef" unicode="&#xed;" 
d="M129 0v1812h768v-1812h-768zM256 129h512v1557h-512v-1557z" />
    <glyph glyph-name=".notdef" unicode="&#xeb;" 
d="M129 0v1812h768v-1812h-768zM256 129h512v1557h-512v-1557z" />
    <glyph glyph-name=".notdef" unicode="&#xea;" 
d="M129 0v1812h768v-1812h-768zM256 129h512v1557h-512v-1557z" />
    <glyph glyph-name=".notdef" unicode="&#xe8;" 
d="M129 0v1812h768v-1812h-768zM256 129h512v1557h-512v-1557z" />
    <glyph glyph-name=".notdef" unicode="&#xe9;" 
d="M129 0v1812h768v-1812h-768zM256 129h512v1557h-512v-1557z" />
    <glyph glyph-name=".notdef" unicode="&#xe7;" 
d="M129 0v1812h768v-1812h-768zM256 129h512v1557h-512v-1557z" />
    <glyph glyph-name=".notdef" unicode="&#xe5;" 
d="M129 0v1812h768v-1812h-768zM256 129h512v1557h-512v-1557z" />
    <glyph glyph-name=".notdef" unicode="&#xe3;" 
d="M129 0v1812h768v-1812h-768zM256 129h512v1557h-512v-1557z" />
    <glyph glyph-name=".notdef" unicode="&#xe4;" 
d="M129 0v1812h768v-1812h-768zM256 129h512v1557h-512v-1557z" />
    <glyph glyph-name=".notdef" unicode="&#xe2;" 
d="M129 0v1812h768v-1812h-768zM256 129h512v1557h-512v-1557z" />
    <glyph glyph-name=".notdef" unicode="&#xe0;" 
d="M129 0v1812h768v-1812h-768zM256 129h512v1557h-512v-1557z" />
    <glyph glyph-name=".notdef" unicode="&#xe1;" 
d="M129 0v1812h768v-1812h-768zM256 129h512v1557h-512v-1557z" />
    <glyph glyph-name=".notdef" unicode="&#xdc;" 
d="M129 0v1812h768v-1812h-768zM256 129h512v1557h-512v-1557z" />
    <glyph glyph-name=".notdef" unicode="&#xd6;" 
d="M129 0v1812h768v-1812h-768zM256 129h512v1557h-512v-1557z" />
    <glyph glyph-name=".notdef" unicode="&#xd1;" 
d="M129 0v1812h768v-1812h-768zM256 129h512v1557h-512v-1557z" />
    <glyph glyph-name=".notdef" unicode="&#xc9;" 
d="M129 0v1812h768v-1812h-768zM256 129h512v1557h-512v-1557z" />
    <glyph glyph-name=".notdef" unicode="&#xc7;" 
d="M129 0v1812h768v-1812h-768zM256 129h512v1557h-512v-1557z" />
    <glyph glyph-name=".notdef" 
d="M129 0v1812h768v-1812h-768zM256 129h512v1557h-512v-1557z" />
    <glyph glyph-name=".notdef" 
d="M129 0v1812h768v-1812h-768zM256 129h512v1557h-512v-1557z" />
    <glyph glyph-name=".notdef" 
d="M129 0v1812h768v-1812h-768zM256 129h512v1557h-512v-1557z" />
    <glyph glyph-name=".notdef" 
d="M129 0v1812h768v-1812h-768zM256 129h512v1557h-512v-1557z" />
    <glyph glyph-name=".notdef" 
d="M129 0v1812h768v-1812h-768zM256 129h512v1557h-512v-1557z" />
    <glyph glyph-name=".notdef" 
d="M129 0v1812h768v-1812h-768zM256 129h512v1557h-512v-1557z" />
    <glyph glyph-name=".notdef" 
d="M129 0v1812h768v-1812h-768zM256 129h512v1557h-512v-1557z" />
    <glyph glyph-name=".notdef" 
d="M129 0v1812h768v-1812h-768zM256 129h512v1557h-512v-1557z" />
    <glyph glyph-name=".notdef" 
d="M129 0v1812h768v-1812h-768zM256 129h512v1557h-512v-1557z" />
    <glyph glyph-name=".notdef" 
d="M129 0v1812h768v-1812h-768zM256 129h512v1557h-512v-1557z" />
    <glyph glyph-name=".notdef" 
d="M129 0v1812h768v-1812h-768zM256 129h512v1557h-512v-1557z" />
    <glyph glyph-name=".notdef" 
d="M129 0v1812h768v-1812h-768zM256 129h512v1557h-512v-1557z" />
    <glyph glyph-name=".notdef" 
d="M129 0v1812h768v-1812h-768zM256 129h512v1557h-512v-1557z" />
    <glyph glyph-name=".notdef" 
d="M129 0v1812h768v-1812h-768zM256 129h512v1557h-512v-1557z" />
    <glyph glyph-name=".notdef" 
d="M129 0v1812h768v-1812h-768zM256 129h512v1557h-512v-1557z" />
    <glyph glyph-name=".notdef" 
d="M129 0v1812h768v-1812h-768zM256 129h512v1557h-512v-1557z" />
    <glyph glyph-name=".notdef" 
d="M129 0v1812h768v-1812h-768zM256 129h512v1557h-512v-1557z" />
    <glyph glyph-name=".notdef" 
d="M129 0v1812h768v-1812h-768zM256 129h512v1557h-512v-1557z" />
    <glyph glyph-name=".notdef" 
d="M129 0v1812h768v-1812h-768zM256 129h512v1557h-512v-1557z" />
    <glyph glyph-name=".notdef" 
d="M129 0v1812h768v-1812h-768zM256 129h512v1557h-512v-1557z" />
    <glyph glyph-name=".notdef" unicode="&#xa;" 
d="M129 0v1812h768v-1812h-768zM256 129h512v1557h-512v-1557z" />
    <glyph glyph-name=".notdef" 
d="M129 0v1812h768v-1812h-768zM256 129h512v1557h-512v-1557z" />
    <glyph glyph-name=".notdef" 
d="M129 0v1812h768v-1812h-768zM256 129h512v1557h-512v-1557z" />
    <glyph glyph-name=".notdef" 
d="M129 0v1812h768v-1812h-768zM256 129h512v1557h-512v-1557z" />
    <glyph glyph-name=".notdef" 
d="M129 0v1812h768v-1812h-768zM256 129h512v1557h-512v-1557z" />
    <glyph glyph-name=".notdef" 
d="M129 0v1812h768v-1812h-768zM256 129h512v1557h-512v-1557z" />
    <glyph glyph-name=".notdef" 
d="M129 0v1812h768v-1812h-768zM256 129h512v1557h-512v-1557z" />
    <glyph glyph-name=".notdef" 
d="M129 0v1812h768v-1812h-768zM256 129h512v1557h-512v-1557z" />
    <glyph glyph-name=".null" horiz-adv-x="0" 
 />
    <glyph glyph-name=".null" horiz-adv-x="0" 
 />
    <glyph glyph-name=".null" horiz-adv-x="0" 
 />
    <glyph glyph-name="nonmarkingreturn" unicode="&#xd;" horiz-adv-x="569" 
 />
    <glyph glyph-name="nonmarkingreturn" unicode="&#x9;" horiz-adv-x="569" 
 />
    <glyph glyph-name="space" unicode="&#xa0;" horiz-adv-x="614" 
 />
    <glyph glyph-name="space" unicode=" " horiz-adv-x="614" 
 />
    <glyph glyph-name="exclam" unicode="!" horiz-adv-x="1778" 
d="M1793 2110v-1910l-1402 228q-61 16 -64 80v1292q6 59 70 73zM1831 0h-1538q-218 26 -222 237v1829q1 235 235 250h1524v-113h-1523q-115 -15 -122 -137l-2 -1825q-1 -118 108 -127l1541 -1zM1205 1434l167 122v-992h174v1185h-174l-167 -129v-186z" />
    <glyph glyph-name="quotedbl" unicode="&#x22;" horiz-adv-x="1778" 
d="M1793 2110v-1910l-1402 228q-61 16 -64 80v1292q6 59 70 73zM1831 0h-1538q-218 26 -222 237v1829q1 235 235 250h1524v-113h-1523q-115 -15 -122 -137l-2 -1825q-1 -118 108 -127l1541 -1zM1732 566v169h-450l379 480q71 88 71 209q0 141 -98.5 241t-245.5 100
q-133 0 -230.5 -99.5t-97.5 -243.5h169q5 80 54 126.5t118 46.5q75 0 118.5 -53.5t43.5 -116.5q0 -26 -8 -55t-34 -63l-461 -582v-159h672z" />
    <glyph glyph-name="numbersign" unicode="#" 
d="M129 0v1812h768v-1812h-768zM256 129h512v1557h-512v-1557z" />
    <glyph glyph-name="dollar" unicode="$" horiz-adv-x="1778" 
d="M1793 2110v-1910l-1402 228q-61 16 -64 80v1292q6 59 70 73zM1831 0h-1538q-218 26 -222 237v1829q1 235 235 250h1524v-113h-1523q-115 -15 -122 -137l-2 -1825q-1 -118 108 -127l1541 -1zM1471 735v-176h171v176h96v162h-96v343h-171v-343h-310l403 854h-191l-399 -854
v-162h497z" />
    <glyph glyph-name="percent" unicode="%" horiz-adv-x="1778" 
d="M1793 2110v-1910l-1402 228q-61 16 -64 80v1292q6 59 70 73zM1831 0h-1538q-218 26 -222 237v1829q1 235 235 250h1524v-113h-1523q-115 -15 -122 -137l-2 -1825q-1 -118 108 -127l1541 -1zM1204 1113q56 98 158 98q108 0 142.5 -65t34.5 -163q4 -86 -24.5 -166
t-147.5 -88q-145 0 -176 138h-176q20 -166 130 -236.5t229 -70.5q91 0 159.5 40t105.5 86q40 48 58 106t20 178q-2 147 -25 209t-74 115q-33 34 -91 60t-127 26q-112 0 -196 -65v267h487v170h-653v-639h166z" />
    <glyph glyph-name="ampersand" unicode="&#x26;" horiz-adv-x="1778" 
d="M1793 2110v-1910l-1402 228q-61 16 -64 80v1292q6 59 70 73zM1831 0h-1538q-218 26 -222 237v1829q1 235 235 250h1524v-113h-1523q-115 -15 -122 -137l-2 -1825q-1 -118 108 -127l1541 -1zM1047 925q0 -167 101 -263q101 -94 225 -94q131 0 239 86q108 87 108 290
q0 171 -86 250q-86 77 -195 77q-52 0 -89 -15h-3l246 498h-187l-314 -632q-45 -89 -45 -197zM1502 1078q49 -49 49 -147q0 -105 -55 -148q-55 -44 -113 -44q-169 0 -169 192q0 98 49 147q49 46 120 46q70 0 119 -46z" />
    <glyph glyph-name="quotesingle" unicode="'" 
d="M129 0v1812h768v-1812h-768zM256 129h512v1557h-512v-1557z" />
    <glyph glyph-name="parenleft" unicode="(" horiz-adv-x="1778" 
d="M1793 2110v-1910l-1402 228q-61 16 -64 80v1292q6 59 70 73zM1831 0h-1538q-218 26 -222 237v1829q1 235 235 250h1524v-113h-1523q-115 -15 -122 -137l-2 -1825q-1 -118 108 -127l1541 -1zM1269.5 1551.5q51.5 43.5 116.5 43.5q64 0 116 -43.5t52 -127.5t-52 -127
t-116 -43q-65 0 -116.5 43t-51.5 127t51.5 127.5zM1134 656.5q105 -99.5 252 -99.5q145 0 251 99.5t106 257.5q0 172 -138 266q51 48 84 105t33 136q0 143 -97 243.5t-239 100.5q-143 0 -239.5 -100.5t-96.5 -243.5q0 -79 32.5 -136t84.5 -105q-138 -93 -138 -266
q0 -158 105 -257.5zM1253.5 1050.5q56.5 53.5 132.5 53.5q75 0 132.5 -53.5t57.5 -135.5q0 -81 -57.5 -135t-132.5 -54q-76 0 -132.5 54t-56.5 135q0 82 56.5 135.5z" />
    <glyph glyph-name="parenright" unicode=")" horiz-adv-x="1778" 
d="M1793 2110v-1910l-1402 228q-61 16 -64 80v1292q6 59 70 73zM1831 0h-1538q-218 26 -222 237v1829q1 235 235 250h1524v-113h-1523q-115 -15 -122 -137l-2 -1825q-1 -118 108 -127l1541 -1zM1737 1405q0 170 -102 269q-103 99 -226 99q-132 0 -240 -90
q-108 -89 -108 -297q0 -175 85 -255q84 -80 197 -80q49 0 89 15h4l-249 -508h189l316 646q45 91 45 201zM1279 1252q-49 47 -49 150q0 107 56 153q54 45 113 45q169 0 169 -198q0 -104 -49 -150q-49 -48 -120 -48t-120 48z" />
    <glyph glyph-name="asterisk" unicode="*" 
d="M129 0v1812h768v-1812h-768zM256 129h512v1557h-512v-1557z" />
    <glyph glyph-name="plus" unicode="+" 
d="M129 0v1812h768v-1812h-768zM256 129h512v1557h-512v-1557z" />
    <glyph glyph-name="comma" unicode="," horiz-adv-x="3284" 
d="M36 2326h3140v-2329h-3140v2329zM88 62h3036v2199h-3036v-2199zM115 2233h2986v-2155h-2986v2155zM2789 717l220 105q-367 138 -388 390q1 94 28 142q83 171 343 285l-218 106l-875 -402l134 -64l-16 -7l-295 142l16 7l116 -53l868 406l-196 93q-481 -171 -865 -171
q-315 0 -672 71l-274 100l-216 -110zM2545 1420q-143 -194 -19 -379l-507 230l17 7l104 -46l386 179zM1252 1636q341 -54 725 3l-354 -164l112 -52l-16 -8l-509 230zM441 700l871 409l-228 107l18 8l271 -126l-883 -419l239 -107q178 99 424 141q316 43 673 29
q412 -29 672 -170l236 116l-2292 1041l-225 -108l31 -10q316 -115 357 -356q5 -86 -28 -171q-43 -126 -329 -285zM688 1411l411 -185l-410 -212q63 80 67 241q-3 68 -27 99zM1374 1097l575 -269q-342 13 -685 -15l312 170l-218 105z" />
    <glyph glyph-name="hyphen" unicode="-" 
d="M129 0v1812h768v-1812h-768zM256 129h512v1557h-512v-1557z" />
    <glyph glyph-name="period" unicode="." horiz-adv-x="3470" 
d="M1671 2096l1389 -230q58 -17 62 -80v-1240q-13 -112 -87 -118l-1321 -230l-1401 230q-61 16 -64 80l1 1292q5 59 69 73zM3153 112q107 6 99 124v1834q10 119 -105 132l-2890 1q-115 -15 -122 -137l-2 -1825q-1 -118 108 -127zM21 2066q1 235 235 250h2888
q227 -6 228 -245l-1 -1828q-4 -229 -209 -243h-2919q-218 26 -222 237v1829z" />
    <glyph glyph-name="slash" unicode="/" horiz-adv-x="1778" 
d="M1793 2110v-1910l-1402 228q-61 16 -64 80v1292q6 59 70 73zM1831 0h-1538q-218 26 -222 237v1829q1 235 235 250h1524v-113h-1523q-115 -15 -122 -137l-2 -1825q-1 -118 108 -127l1541 -1zM1230 1406v171h316l-404 -1020h192l403 1020v171h-678v-342h171z" />
    <glyph glyph-name="zero" unicode="0" horiz-adv-x="3470" 
d="M1065 1434l167 122v-992h174v1185h-174l-167 -129v-186zM1671 2096l1389 -230q58 -17 62 -80v-1240q-13 -112 -87 -118l-1321 -230l-1401 230q-61 16 -64 80l1 1292q5 59 69 73zM3153 112q107 6 99 124v1834q10 119 -105 132l-2890 1q-115 -15 -122 -137l-2 -1825
q-1 -118 108 -127zM21 2066q1 235 235 250h2888q227 -6 228 -245l-1 -1828q-4 -229 -209 -243h-2919q-218 26 -222 237v1829zM2130.5 769.5q-45.5 -47.5 -119.5 -47.5q-75 0 -120.5 47.5t-45.5 132.5v501q0 85 45.5 133t120.5 48q74 0 119.5 -48t45.5 -133v-501
q0 -85 -45.5 -132.5zM1778 642q102 -88 233 -88q130 0 232 88t102 251v520q0 163 -102 251.5t-232 88.5q-131 0 -233 -88.5t-102 -251.5v-520q0 -163 102 -251z" />
    <glyph glyph-name="one" unicode="1" horiz-adv-x="3470" 
d="M1435 1434l167 122v-992h174v1185h-174l-167 -129v-186zM1671 2096l1389 -230q58 -17 62 -80v-1240q-13 -112 -87 -118l-1321 -230l-1401 230q-61 16 -64 80l1 1292q5 59 69 73zM3153 112q107 6 99 124v1834q10 119 -105 132l-2890 1q-115 -15 -122 -137l-2 -1825
q-1 -118 108 -127zM21 2066q1 235 235 250h2888q227 -6 228 -245l-1 -1828q-4 -229 -209 -243h-2919q-218 26 -222 237v1829z" />
    <glyph glyph-name="two" unicode="2" horiz-adv-x="3470" 
d="M2020 566v168h-450l379 476q71 87 71 207q0 140 -98.5 239t-245.5 99q-133 0 -230.5 -98.5t-97.5 -241.5h169q5 79 54 125t118 46q75 0 118.5 -53t43.5 -115q0 -26 -8 -54.5t-34 -62.5l-461 -577v-158h672zM1671 2096l1389 -230q58 -17 62 -80v-1240q-13 -112 -87 -118
l-1321 -230l-1401 230q-61 16 -64 80l1 1292q5 59 69 73zM3153 112q107 6 99 124v1834q10 119 -105 132l-2890 1q-115 -15 -122 -137l-2 -1825q-1 -118 108 -127zM21 2066q1 235 235 250h2888q227 -6 228 -245l-1 -1828q-4 -229 -209 -243h-2919q-218 26 -222 237v1829z" />
    <glyph glyph-name="three" unicode="3" horiz-adv-x="3470" 
d="M1667 1098q74 0 127.5 -49.5t53.5 -137.5q0 -87 -54 -136.5t-124 -49.5q-72 0 -111.5 36.5t-63.5 97.5h-168q23 -148 118.5 -225t214.5 -77q150 0 253.5 97.5t103.5 262.5q0 71 -32.5 140t-106.5 117q73 47 99.5 111t26.5 132q0 128 -95 231.5t-252 103.5
q-126 0 -220 -93t-104 -217h169q13 71 60.5 106t101.5 35q70 0 120.5 -49t50.5 -121t-48.5 -119.5t-132.5 -47.5h-58v-148h71zM1671 2096l1389 -230q58 -17 62 -80v-1240q-13 -112 -87 -118l-1321 -230l-1401 230q-61 16 -64 80l1 1292q5 59 69 73zM3153 112q107 6 99 124
v1834q10 119 -105 132l-2890 1q-115 -15 -122 -137l-2 -1825q-1 -118 108 -127zM21 2066q1 235 235 250h2888q227 -6 228 -245l-1 -1828q-4 -229 -209 -243h-2919q-218 26 -222 237v1829z" />
    <glyph glyph-name="four" unicode="4" horiz-adv-x="3470" 
d="M1704 735v-176h171v176h96v162h-96v343h-171v-343h-310l403 854h-191l-399 -854v-162h497zM1671 2096l1389 -230q58 -17 62 -80v-1240q-13 -112 -87 -118l-1321 -230l-1401 230q-61 16 -64 80l1 1292q5 59 69 73zM3153 112q107 6 99 124v1834q10 119 -105 132l-2890 1
q-115 -15 -122 -137l-2 -1825q-1 -118 108 -127zM21 2066q1 235 235 250h2888q227 -6 228 -245l-1 -1828q-4 -229 -209 -243h-2919q-218 26 -222 237v1829z" />
    <glyph glyph-name="five" unicode="5" horiz-adv-x="3470" 
d="M1534 1113q56 98 158 98q108 0 142.5 -65t34.5 -163q4 -86 -24.5 -166t-147.5 -88q-145 0 -176 138h-176q20 -166 130 -236.5t229 -70.5q91 0 159.5 40t105.5 86q40 48 58 106t20 178q-2 147 -25 209t-74 115q-33 34 -91 60t-127 26q-112 0 -196 -65v267h487v170h-653
v-639h166zM1671 2096l1389 -230q58 -17 62 -80v-1240q-13 -112 -87 -118l-1321 -230l-1401 230q-61 16 -64 80l1 1292q5 59 69 73zM3153 112q107 6 99 124v1834q10 119 -105 132l-2890 1q-115 -15 -122 -137l-2 -1825q-1 -118 108 -127zM21 2066q1 235 235 250h2888
q227 -6 228 -245l-1 -1828q-4 -229 -209 -243h-2919q-218 26 -222 237v1829z" />
    <glyph glyph-name="six" unicode="6" horiz-adv-x="3470" 
d="M1327 928q0 -167 101 -262q101 -94 225 -94q131 0 239 86t108 289q0 170 -86 249q-86 77 -195 77q-52 0 -89 -15h-3l246 496h-187l-314 -630q-45 -89 -45 -196zM1782 1078q49 -49 49 -147q0 -105 -55 -148q-55 -44 -113 -44q-169 0 -169 192q0 98 49 147q49 46 120 46
q70 0 119 -46zM1671 2096l1389 -230q58 -17 62 -80v-1240q-13 -112 -87 -118l-1321 -230l-1401 230q-61 16 -64 80l1 1292q5 59 69 73zM3153 112q107 6 99 124v1834q10 119 -105 132l-2890 1q-115 -15 -122 -137l-2 -1825q-1 -118 108 -127zM21 2066q1 235 235 250h2888
q227 -6 228 -245l-1 -1828q-4 -229 -209 -243h-2919q-218 26 -222 237v1829z" />
    <glyph glyph-name="seven" unicode="7" horiz-adv-x="3470" 
d="M1525 1406v171h316l-404 -1020h192l403 1020v171h-678v-342h171zM1671 2096l1389 -230q58 -17 62 -80v-1240q-13 -112 -87 -118l-1321 -230l-1401 230q-61 16 -64 80l1 1292q5 59 69 73zM3153 112q107 6 99 124v1834q10 119 -105 132l-2890 1q-115 -15 -122 -137
l-2 -1825q-1 -118 108 -127zM21 2066q1 235 235 250h2888q227 -6 228 -245l-1 -1828q-4 -229 -209 -243h-2919q-218 26 -222 237v1829z" />
    <glyph glyph-name="eight" unicode="8" horiz-adv-x="3470" 
d="M1671 2096l1389 -230q58 -17 62 -80v-1240q-13 -112 -87 -118l-1343 -223l-1379 223q-61 16 -64 80l1 1292q5 59 69 73zM3153 112q107 6 99 124v1834q10 119 -105 132l-2890 1q-115 -15 -122 -137l-2 -1825q-1 -118 108 -127zM21 2066q1 235 235 250h2888
q227 -6 228 -245l-1 -1828q-4 -229 -209 -243h-2919q-218 26 -222 237v1829zM1571.5 1542q51.5 43 116.5 43q64 0 116 -43t52 -125q0 -83 -52 -125.5t-116 -42.5q-65 0 -116.5 42.5t-51.5 125.5q0 82 51.5 125zM1436 659q105 -98 252 -98q145 0 251 98t106 254
q0 170 -138 263q51 47 84 103.5t33 134.5q0 141 -97 240t-239 99q-143 0 -239.5 -99t-96.5 -240q0 -78 32.5 -134.5t84.5 -103.5q-138 -92 -138 -263q0 -156 105 -254zM1555.5 1048q56.5 53 132.5 53q75 0 132.5 -53t57.5 -134q0 -80 -57.5 -133t-132.5 -53q-76 0 -132.5 53
t-56.5 133q0 81 56.5 134z" />
    <glyph glyph-name="nine" unicode="9" horiz-adv-x="3470" 
d="M1671 2096l1389 -230q58 -17 62 -80v-1240q-13 -112 -87 -118l-1346 -226l-1376 226q-61 16 -64 80l1 1292q5 59 69 73zM3153 112q107 6 99 124v1834q10 119 -105 132l-2890 1q-115 -15 -122 -137l-2 -1825q-1 -118 108 -127zM21 2066q1 235 235 250h2888
q227 -6 228 -245l-1 -1828q-4 -229 -209 -243h-2919q-218 26 -222 237v1829zM2047 1387q0 166 -102 263q-103 97 -226 97q-132 0 -240 -88q-108 -87 -108 -290q0 -172 85 -250q84 -78 197 -78q49 0 89 15h4l-249 -497h189l316 632q45 89 45 196zM1589 1238q-49 46 -49 146
q0 105 56 150q54 44 113 44q169 0 169 -194q0 -101 -49 -146q-49 -47 -120 -47t-120 47z" />
    <glyph glyph-name="colon" unicode=":" 
d="M129 0v1812h768v-1812h-768zM256 129h512v1557h-512v-1557z" />
    <glyph glyph-name="semicolon" unicode=";" 
d="M129 0v1812h768v-1812h-768zM256 129h512v1557h-512v-1557z" />
    <glyph glyph-name="less" unicode="&#x3c;" horiz-adv-x="1778" 
d="M1793 2110v-1910l-1402 228q-61 16 -64 80v1292q6 59 70 73zM1831 0h-1538q-218 26 -222 237v1829q1 235 235 250h1524v-113h-1523q-115 -15 -122 -137l-2 -1825q-1 -118 108 -127l1541 -1z" />
    <glyph glyph-name="equal" unicode="=" 
d="M129 0v1812h768v-1812h-768zM256 129h512v1557h-512v-1557z" />
    <glyph glyph-name="greater" unicode="&#x3e;" horiz-adv-x="1858" 
d="M1396 1873q64 -14 70 -73v-1292q-3 -64 -64 -80l-1402 -226v1904zM-38 113l1540 1q109 9 108 127l-2 1825q-7 122 -122 137h-1523v113h1524q234 -15 235 -250v-1829q-4 -211 -222 -237h-1537z" />
    <glyph glyph-name="question" unicode="?" 
d="M129 0v1812h768v-1812h-768zM256 129h512v1557h-512v-1557z" />
    <glyph glyph-name="at" unicode="@" horiz-adv-x="1306" 
d="M1329 2033v-1755l-938 150q-61 16 -64 80v1292q6 59 70 73zM1351 0h-1058q-218 26 -222 237v1829q1 235 235 250h1044v-113h-1043q-115 -15 -122 -137l-2 -1825q-1 -118 108 -127l1059 -1zM885 1434l167 122v-992h174v1185h-174l-167 -129v-186zM1740 2108l458 -79v-1750
l-451 -73l-444 77l3 1746zM3130 1873q64 -14 70 -73v-1292q-3 -64 -64 -80l-968 -154l1 1760zM2183 113l1050 1q109 9 108 127l-2 1825q-7 122 -122 137h-1033v113h1034q234 -15 235 -250v-1829q-4 -211 -222 -237h-1048v113zM1322 2316h885l1 -113h-886v113zM1325 113h885
l1 -113h-885z" />
    <glyph glyph-name="A" unicode="A" horiz-adv-x="863" 
d="M15 2316h896l1 -113h-897v113zM16 113h898l1 -113h-898zM268 1434l167 122v-992h174v1185h-174l-167 -129v-186zM445 2108l457 -79v-1750l-451 -73l-428 74v1750z" />
    <glyph glyph-name="B" unicode="B" 
d="M129 0v1812h768v-1812h-768zM256 129h512v1557h-512v-1557z" />
    <glyph glyph-name="C" unicode="C" horiz-adv-x="1374" 
d="M977 1873q64 -14 70 -73v-1292q-3 -64 -64 -80l-969 -150l2 1753zM0 113l1080 1q109 9 108 127l-2 1825q-7 122 -122 137h-1063v113h1064q234 -15 235 -250v-1829q-4 -211 -222 -237h-1078v113zM304.5 1551.5q51.5 43.5 116.5 43.5q64 0 116 -43.5t52 -127.5t-52 -127
t-116 -43q-65 0 -116.5 43t-51.5 127t51.5 127.5zM169 656.5q105 -99.5 252 -99.5q145 0 251 99.5t106 257.5q0 172 -138 266q51 48 84 105t33 136q0 143 -97 243.5t-239 100.5q-143 0 -239.5 -100.5t-96.5 -243.5q0 -79 32.5 -136t84.5 -105q-138 -93 -138 -266
q0 -158 105 -257.5zM288.5 1050.5q56.5 53.5 132.5 53.5q75 0 132.5 -53.5t57.5 -135.5q0 -81 -57.5 -135t-132.5 -54q-76 0 -132.5 54t-56.5 135q0 82 56.5 135.5z" />
    <glyph glyph-name="D" unicode="D" horiz-adv-x="1374" 
d="M977 1873q64 -14 70 -73v-1292q-3 -64 -64 -80l-969 -150l2 1753zM0 113l1080 1q109 9 108 127l-2 1825q-7 122 -122 137h-1063v113h1064q234 -15 235 -250v-1829q-4 -211 -222 -237h-1078v113zM741 566v169h-450l379 480q71 88 71 209q0 141 -98.5 241t-245.5 100
q-133 0 -230.5 -99.5t-97.5 -243.5h169q5 80 54 126.5t118 46.5q75 0 118.5 -53.5t43.5 -116.5q0 -26 -8 -55t-34 -63l-461 -582v-159h672z" />
    <glyph glyph-name="E" unicode="E" horiz-adv-x="1858" 
d="M1396 1873q64 -14 70 -73v-1292q-3 -64 -64 -80l-1402 -226v1904zM-38 113l1540 1q109 9 108 127l-2 1825q-7 122 -122 137h-1523v113h1524q234 -15 235 -250v-1829q-4 -211 -222 -237h-1537zM407 1098q74 0 127.5 -49.5t53.5 -137.5q0 -87 -54 -136.5t-124 -49.5
q-72 0 -111.5 36.5t-63.5 97.5h-168q23 -148 118.5 -225t214.5 -77q150 0 253.5 97.5t103.5 262.5q0 71 -32.5 140t-106.5 117q73 47 99.5 111t26.5 132q0 128 -95 231.5t-252 103.5q-126 0 -220 -93t-104 -217h169q13 71 60.5 106t101.5 35q70 0 120.5 -49t50.5 -121
t-48.5 -119.5t-132.5 -47.5h-58v-148h71z" />
    <glyph glyph-name="F" unicode="F" horiz-adv-x="863" 
d="M15 2316h896l1 -113h-897v113zM16 113h898l1 -113h-898zM445 2108l457 -79v-1750l-451 -73l-428 74v1750zM467 1098q74 0 127.5 -49.5t53.5 -137.5q0 -87 -54 -136.5t-124 -49.5q-72 0 -111.5 36.5t-63.5 97.5h-168q23 -148 118.5 -225t214.5 -77q150 0 253.5 97.5
t103.5 262.5q0 71 -32.5 140t-106.5 117q73 47 99.5 111t26.5 132q0 128 -95 231.5t-252 103.5q-126 0 -220 -93t-104 -217h169q13 71 60.5 106t101.5 35q70 0 120.5 -49t50.5 -121t-48.5 -119.5t-132.5 -47.5h-58v-148h71z" />
    <glyph glyph-name="G" unicode="G" horiz-adv-x="1313" 
d="M1329 2033v-1755l-938 150q-61 16 -64 80v1292q6 59 70 73zM1351 0h-1058q-218 26 -222 237v1829q1 235 235 250h1044v-113h-1043q-115 -15 -122 -137l-2 -1825q-1 -118 108 -127l1059 -1zM1032 735v-176h171v176h96v162h-96v343h-171v-343h-310l403 854h-191l-399 -854
v-162h497z" />
    <glyph glyph-name="H" unicode="H" horiz-adv-x="1374" 
d="M977 1873q64 -14 70 -73v-1292q-3 -64 -64 -80l-969 -150l2 1753zM0 113l1080 1q109 9 108 127l-2 1825q-7 122 -122 137h-1063v113h1064q234 -15 235 -250v-1829q-4 -211 -222 -237h-1078v113zM570 735v-176h171v176h96v162h-96v343h-171v-343h-310l403 854h-191
l-399 -854v-162h497z" />
    <glyph glyph-name="I" unicode="I" horiz-adv-x="1858" 
d="M1396 1873q64 -14 70 -73v-1292q-3 -64 -64 -80l-1402 -226v1904zM-38 113l1540 1q109 9 108 127l-2 1825q-7 122 -122 137h-1523v113h1524q234 -15 235 -250v-1829q-4 -211 -222 -237h-1537zM304.5 1551.5q51.5 43.5 116.5 43.5q64 0 116 -43.5t52 -127.5t-52 -127
t-116 -43q-65 0 -116.5 43t-51.5 127t51.5 127.5zM169 656.5q105 -99.5 252 -99.5q145 0 251 99.5t106 257.5q0 172 -138 266q51 48 84 105t33 136q0 143 -97 243.5t-239 100.5q-143 0 -239.5 -100.5t-96.5 -243.5q0 -79 32.5 -136t84.5 -105q-138 -93 -138 -266
q0 -158 105 -257.5zM288.5 1050.5q56.5 53.5 132.5 53.5q75 0 132.5 -53.5t57.5 -135.5q0 -81 -57.5 -135t-132.5 -54q-76 0 -132.5 54t-56.5 135q0 82 56.5 135.5z" />
    <glyph glyph-name="J" unicode="J" horiz-adv-x="863" 
d="M15 2316h896l1 -113h-897v113zM16 113h898l1 -113h-898zM445 2108l457 -79v-1750l-451 -73l-428 74v1750zM323 1113q56 98 158 98q108 0 142.5 -65t34.5 -163q4 -86 -24.5 -166t-147.5 -88q-145 0 -176 138h-176q20 -166 130 -236.5t229 -70.5q91 0 159.5 40t105.5 86
q40 48 58 106t20 178q-2 147 -25 209t-74 115q-33 34 -91 60t-127 26q-112 0 -196 -65v267h487v170h-653v-639h166z" />
    <glyph glyph-name="K" unicode="K" horiz-adv-x="1313" 
d="M1329 2033v-1755l-938 150q-61 16 -64 80v1292q6 59 70 73zM1351 0h-1058q-218 26 -222 237v1829q1 235 235 250h1044v-113h-1043q-115 -15 -122 -137l-2 -1825q-1 -118 108 -127l1059 -1zM614 925q0 -167 101 -263q101 -94 225 -94q131 0 239 86q108 87 108 290
q0 171 -86 250q-86 77 -195 77q-52 0 -89 -15h-3l246 498h-187l-314 -632q-45 -89 -45 -197zM1069 1076q49 -49 49 -148q0 -105 -55 -148q-55 -44 -113 -44q-169 0 -169 192q0 99 49 148q49 46 120 46q70 0 119 -46z" />
    <glyph glyph-name="L" unicode="L" horiz-adv-x="1374" 
d="M977 1873q64 -14 70 -73v-1292q-3 -64 -64 -80l-969 -150l2 1753zM0 113l1080 1q109 9 108 127l-2 1825q-7 122 -122 137h-1063v113h1064q234 -15 235 -250v-1829q-4 -211 -222 -237h-1078v113zM67 925q0 -167 101 -263q101 -94 225 -94q131 0 239 86q108 87 108 290
q0 171 -86 250q-86 77 -195 77q-52 0 -89 -15h-3l246 498h-187l-314 -632q-45 -89 -45 -197zM522 1076q49 -49 49 -148q0 -105 -55 -148q-55 -44 -113 -44q-169 0 -169 192q0 99 49 148q49 46 120 46q70 0 119 -46z" />
    <glyph glyph-name="M" unicode="M" 
d="M129 0v1812h768v-1812h-768zM256 129h512v1557h-512v-1557z" />
    <glyph glyph-name="N" unicode="N" horiz-adv-x="1374" 
d="M977 1873q64 -14 70 -73v-1292q-3 -64 -64 -80l-969 -150l2 1753zM0 113l1080 1q109 9 108 127l-2 1825q-7 122 -122 137h-1063v113h1064q234 -15 235 -250v-1829q-4 -211 -222 -237h-1078v113zM537.5 769.5q-45.5 -47.5 -119.5 -47.5q-75 0 -120.5 47.5t-45.5 132.5v501
q0 85 45.5 133t120.5 48q74 0 119.5 -48t45.5 -133v-501q0 -85 -45.5 -132.5zM185 642q102 -88 233 -88q130 0 232 88t102 251v520q0 163 -102 251.5t-232 88.5q-131 0 -233 -88.5t-102 -251.5v-520q0 -163 102 -251z" />
    <glyph glyph-name="O" unicode="O" horiz-adv-x="1858" 
d="M1396 1873q64 -14 70 -73v-1292q-3 -64 -64 -80l-1402 -226v1904zM-38 113l1540 1q109 9 108 127l-2 1825q-7 122 -122 137h-1523v113h1524q234 -15 235 -250v-1829q-4 -211 -222 -237h-1537zM746 1396q0 169 -102 267q-103 98 -226 98q-132 0 -240 -89
q-108 -88 -108 -294q0 -174 85 -253q84 -79 197 -79q49 0 89 15h4l-249 -503h189l316 640q45 90 45 198zM288 1246q-49 46 -49 147q0 107 56 152q54 45 113 45q169 0 169 -197q0 -102 -49 -147q-49 -48 -120 -48t-120 48z" />
    <glyph glyph-name="P" unicode="P" horiz-adv-x="1858" 
d="M1396 1873q64 -14 70 -73v-1292q-3 -64 -64 -80l-1402 -226v1904zM-38 113l1540 1q109 9 108 127l-2 1825q-7 122 -122 137h-1523v113h1524q234 -15 235 -250v-1829q-4 -211 -222 -237h-1537zM533.5 769.5q-45.5 -47.5 -119.5 -47.5q-75 0 -120.5 47.5t-45.5 132.5v501
q0 85 45.5 133t120.5 48q74 0 119.5 -48t45.5 -133v-501q0 -85 -45.5 -132.5zM181 642q102 -88 233 -88q130 0 232 88t102 251v520q0 163 -102 251.5t-232 88.5q-131 0 -233 -88.5t-102 -251.5v-520q0 -163 102 -251z" />
    <glyph glyph-name="Q" unicode="Q" horiz-adv-x="1858" 
d="M1396 1873q64 -14 70 -73v-1292q-3 -64 -64 -80l-1402 -226v1904zM-38 113l1540 1q109 9 108 127l-2 1825q-7 122 -122 137h-1523v113h1524q234 -15 235 -250v-1829q-4 -211 -222 -237h-1537zM185 1434l167 122v-992h174v1185h-174l-167 -129v-186z" />
    <glyph glyph-name="R" unicode="R" horiz-adv-x="1858" 
d="M1396 1873q64 -14 70 -73v-1292q-3 -64 -64 -80l-1402 -226v1904zM-38 113l1540 1q109 9 108 127l-2 1825q-7 122 -122 137h-1523v113h1524q234 -15 235 -250v-1829q-4 -211 -222 -237h-1537zM544 735v-176h171v176h96v162h-96v343h-171v-343h-310l403 854h-191
l-399 -854v-162h497z" />
    <glyph glyph-name="S" unicode="S" horiz-adv-x="1313" 
d="M1329 2033v-1755l-938 150q-61 16 -64 80v1292q6 59 70 73zM1351 0h-1058q-218 26 -222 237v1829q1 235 235 250h1044v-113h-1043q-115 -15 -122 -137l-2 -1825q-1 -118 108 -127l1059 -1zM1310 566v169h-450l379 480q71 88 71 209q0 141 -98.5 241t-245.5 100
q-133 0 -230.5 -99.5t-97.5 -243.5h169q5 80 54 126.5t118 46.5q75 0 118.5 -53.5t43.5 -116.5q0 -26 -8 -55t-34 -63l-461 -582v-159h672z" />
    <glyph glyph-name="T" unicode="T" horiz-adv-x="1858" 
d="M1396 1873q64 -14 70 -73v-1292q-3 -64 -64 -80l-1402 -226v1904zM-38 113l1540 1q109 9 108 127l-2 1825q-7 122 -122 137h-1523v113h1524q234 -15 235 -250v-1829q-4 -211 -222 -237h-1537zM263 1113q56 98 158 98q108 0 142.5 -65t34.5 -163q4 -86 -24.5 -166
t-147.5 -88q-145 0 -176 138h-176q20 -166 130 -236.5t229 -70.5q91 0 159.5 40t105.5 86q40 48 58 106t20 178q-2 147 -25 209t-74 115q-33 34 -91 60t-127 26q-112 0 -196 -65v267h487v170h-653v-639h166z" />
    <glyph glyph-name="U" unicode="U" horiz-adv-x="1858" 
d="M1396 1873q64 -14 70 -73v-1292q-3 -64 -64 -80l-1402 -226v1904zM-38 113l1540 1q109 9 108 127l-2 1825q-7 122 -122 137h-1523v113h1524q234 -15 235 -250v-1829q-4 -211 -222 -237h-1537zM245 1406v171h316l-404 -1020h192l403 1020v171h-678v-342h171z" />
    <glyph glyph-name="V" unicode="V" horiz-adv-x="863" 
d="M15 2316h896l1 -113h-897v113zM16 113h898l1 -113h-898zM445 2108l457 -79v-1750l-451 -73l-428 74v1750zM822 1405q0 170 -102 269q-103 99 -226 99q-132 0 -240 -90q-108 -89 -108 -297q0 -175 85 -255q84 -80 197 -80q49 0 89 15h4l-249 -508h189l316 646
q45 91 45 201zM364 1252q-49 47 -49 150q0 107 56 153q54 45 113 45q169 0 169 -198q0 -104 -49 -150q-49 -48 -120 -48t-120 48z" />
    <glyph glyph-name="W" unicode="W" horiz-adv-x="1858" 
d="M1396 1873q64 -14 70 -73v-1292q-3 -64 -64 -80l-1402 -226v1904zM-38 113l1540 1q109 9 108 127l-2 1825q-7 122 -122 137h-1523v113h1524q234 -15 235 -250v-1829q-4 -211 -222 -237h-1537zM760 566v169h-450l379 479q71 87 71 208q0 141 -98.5 240.5t-245.5 99.5
q-133 0 -230.5 -99t-97.5 -243h169q5 79 54 125.5t118 46.5q75 0 118.5 -53.5t43.5 -115.5q0 -26 -8 -54.5t-34 -63.5l-461 -580v-159h672z" />
    <glyph glyph-name="X" unicode="X" horiz-adv-x="1313" 
d="M1329 2033v-1755l-938 150q-61 16 -64 80v1292q6 59 70 73zM1351 0h-1058q-218 26 -222 237v1829q1 235 235 250h1044v-113h-1043q-115 -15 -122 -137l-2 -1825q-1 -118 108 -127l1059 -1zM826.5 1551.5q51.5 43.5 116.5 43.5q64 0 116 -43.5t52 -127.5t-52 -127
t-116 -43q-65 0 -116.5 43t-51.5 127t51.5 127.5zM691 656.5q105 -99.5 252 -99.5q145 0 251 99.5t106 257.5q0 172 -138 266q51 48 84 105t33 136q0 143 -97 243.5t-239 100.5q-143 0 -239.5 -100.5t-96.5 -243.5q0 -79 32.5 -136t84.5 -105q-138 -93 -138 -266
q0 -158 105 -257.5zM810.5 1050.5q56.5 53.5 132.5 53.5q75 0 132.5 -53.5t57.5 -135.5q0 -81 -57.5 -135t-132.5 -54q-76 0 -132.5 54t-56.5 135q0 82 56.5 135.5z" />
    <glyph glyph-name="Y" unicode="Y" horiz-adv-x="863" 
d="M15 2316h896l1 -113h-897v113zM16 113h898l1 -113h-898zM445 2108l457 -79v-1750l-451 -73l-428 74v1750zM337 1406v171h316l-404 -1020h192l403 1020v171h-678v-342h171z" />
    <glyph glyph-name="Z" unicode="Z" horiz-adv-x="1858" 
d="M1396 1873q64 -14 70 -73v-1292q-3 -64 -64 -80l-1402 -226v1904zM-38 113l1540 1q109 9 108 127l-2 1825q-7 122 -122 137h-1523v113h1524q234 -15 235 -250v-1829q-4 -211 -222 -237h-1537zM67 925q0 -167 101 -263q101 -94 225 -94q131 0 239 86q108 87 108 290
q0 171 -86 250q-86 77 -195 77q-52 0 -89 -15h-3l246 498h-187l-314 -632q-45 -89 -45 -197zM522 1076q49 -49 49 -148q0 -105 -55 -148q-55 -44 -113 -44q-169 0 -169 192q0 99 49 148q49 46 120 46q70 0 119 -46z" />
    <glyph glyph-name="bracketleft" unicode="[" horiz-adv-x="1313" 
d="M1329 2033v-1755l-938 150q-61 16 -64 80v1292q6 59 70 73zM1351 0h-1058q-218 26 -222 237v1829q1 235 235 250h1044v-113h-1043q-115 -15 -122 -137l-2 -1825q-1 -118 108 -127l1059 -1z" />
    <glyph glyph-name="backslash" unicode="\" horiz-adv-x="863" 
d="M15 2316h896l1 -113h-897v113zM16 113h898l1 -113h-898zM445 2108l457 -79v-1750l-451 -73l-428 74v1750z" />
    <glyph glyph-name="bracketright" unicode="]" horiz-adv-x="1374" 
d="M977 1873q64 -14 70 -73v-1292q-3 -64 -64 -80l-969 -150l2 1753zM0 113l1080 1q109 9 108 127l-2 1825q-7 122 -122 137h-1063v113h1064q234 -15 235 -250v-1829q-4 -211 -222 -237h-1078v113z" />
    <glyph glyph-name="asciicircum" unicode="^" 
d="M129 0v1812h768v-1812h-768zM256 129h512v1557h-512v-1557z" />
    <glyph glyph-name="underscore" unicode="_" 
d="M129 0v1812h768v-1812h-768zM256 129h512v1557h-512v-1557z" />
    <glyph glyph-name="grave" unicode="`" 
d="M129 0v1812h768v-1812h-768zM256 129h512v1557h-512v-1557z" />
    <glyph glyph-name="a" unicode="a" horiz-adv-x="1313" 
d="M1329 2033v-1755l-938 150q-61 16 -64 80v1292q6 59 70 73zM1351 0h-1058q-218 26 -222 237v1829q1 235 235 250h1044v-113h-1043q-115 -15 -122 -137l-2 -1825q-1 -118 108 -127l1059 -1zM805 1434l167 122v-992h174v1185h-174l-167 -129v-186z" />
    <glyph glyph-name="b" unicode="b" horiz-adv-x="1374" 
d="M977 1873q64 -14 70 -73v-1292q-3 -64 -64 -80l-969 -150l2 1753zM0 113l1080 1q109 9 108 127l-2 1825q-7 122 -122 137h-1063v113h1064q234 -15 235 -250v-1829q-4 -211 -222 -237h-1078v113zM739 1405q0 170 -102 269q-103 99 -226 99q-132 0 -240 -90
q-108 -89 -108 -297q0 -175 85 -255q84 -80 197 -80q49 0 89 15h4l-249 -508h189l316 646q45 91 45 201zM281 1252q-49 47 -49 150q0 107 56 153q54 45 113 45q169 0 169 -198q0 -104 -49 -150q-49 -48 -120 -48t-120 48z" />
    <glyph glyph-name="c" unicode="c" horiz-adv-x="863" 
d="M15 2316h896l1 -113h-897v113zM16 113h898l1 -113h-898zM445 2108l457 -79v-1750l-451 -73l-428 74v1750zM368.5 1551.5q51.5 43.5 116.5 43.5q64 0 116 -43.5t52 -127.5t-52 -127t-116 -43q-65 0 -116.5 43t-51.5 127t51.5 127.5zM233 656.5q105 -99.5 252 -99.5
q145 0 251 99.5t106 257.5q0 172 -138 266q51 48 84 105t33 136q0 143 -97 243.5t-239 100.5q-143 0 -239.5 -100.5t-96.5 -243.5q0 -79 32.5 -136t84.5 -105q-138 -93 -138 -266q0 -158 105 -257.5zM352.5 1050.5q56.5 53.5 132.5 53.5q75 0 132.5 -53.5t57.5 -135.5
q0 -81 -57.5 -135t-132.5 -54q-76 0 -132.5 54t-56.5 135q0 82 56.5 135.5z" />
    <glyph glyph-name="d" unicode="d" horiz-adv-x="863" 
d="M445 2108l457 -79v-1750l-451 -73l-428 74v1750zM15 2316h896l1 -113h-897v113zM16 113h898l1 -113h-898zM815 566v169h-450l379 480q71 88 71 209q0 141 -98.5 241t-245.5 100q-133 0 -230.5 -99.5t-97.5 -243.5h169q5 80 54 126.5t118 46.5q75 0 118.5 -53.5
t43.5 -116.5q0 -26 -8 -55t-34 -63l-461 -582v-159h672z" />
    <glyph glyph-name="e" unicode="e" 
d="M129 0v1812h768v-1812h-768zM256 129h512v1557h-512v-1557z" />
    <glyph glyph-name="f" unicode="f" horiz-adv-x="1313" 
d="M1329 2033v-1755l-938 150q-61 16 -64 80v1292q6 59 70 73zM1351 0h-1058q-218 26 -222 237v1829q1 235 235 250h1044v-113h-1043q-115 -15 -122 -137l-2 -1825q-1 -118 108 -127l1059 -1zM946 1098q74 0 127.5 -49.5t53.5 -137.5q0 -87 -54 -136.5t-124 -49.5
q-72 0 -111.5 36.5t-63.5 97.5h-168q23 -148 118.5 -225t214.5 -77q150 0 253.5 97.5t103.5 262.5q0 71 -32.5 140t-106.5 117q73 47 99.5 111t26.5 132q0 128 -95 231.5t-252 103.5q-126 0 -220 -93t-104 -217h169q13 71 60.5 106t101.5 35q70 0 120.5 -49t50.5 -121
t-48.5 -119.5t-132.5 -47.5h-58v-148h71z" />
    <glyph glyph-name="g" unicode="g" horiz-adv-x="1374" 
d="M977 1873q64 -14 70 -73v-1292q-3 -64 -64 -80l-969 -150l2 1753zM0 113l1080 1q109 9 108 127l-2 1825q-7 122 -122 137h-1063v113h1064q234 -15 235 -250v-1829q-4 -211 -222 -237h-1078v113zM402 1098q74 0 127.5 -49.5t53.5 -137.5q0 -87 -54 -136.5t-124 -49.5
q-72 0 -111.5 36.5t-63.5 97.5h-168q23 -148 118.5 -225t214.5 -77q150 0 253.5 97.5t103.5 262.5q0 71 -32.5 140t-106.5 117q73 47 99.5 111t26.5 132q0 128 -95 231.5t-252 103.5q-126 0 -220 -93t-104 -217h169q13 71 60.5 106t101.5 35q70 0 120.5 -49t50.5 -121
t-48.5 -119.5t-132.5 -47.5h-58v-148h71z" />
    <glyph glyph-name="h" unicode="h" horiz-adv-x="863" 
d="M15 2316h896l1 -113h-897v113zM16 113h898l1 -113h-898zM445 2108l457 -79v-1750l-451 -73l-428 74v1750zM604 735v-176h171v176h96v162h-96v343h-171v-343h-310l403 854h-191l-399 -854v-162h497z" />
    <glyph glyph-name="i" unicode="i" 
d="M129 0v1812h768v-1812h-768zM256 129h512v1557h-512v-1557z" />
    <glyph glyph-name="j" unicode="j" horiz-adv-x="1313" 
d="M1329 2033v-1755l-938 150q-61 16 -64 80v1292q6 59 70 73zM1351 0h-1058q-218 26 -222 237v1829q1 235 235 250h1044v-113h-1043q-115 -15 -122 -137l-2 -1825q-1 -118 108 -127l1059 -1zM786 1113q56 98 158 98q108 0 142.5 -65t34.5 -163q4 -86 -24.5 -166t-147.5 -88
q-145 0 -176 138h-176q20 -166 130 -236.5t229 -70.5q91 0 159.5 40t105.5 86q40 48 58 106t20 178q-2 147 -25 209t-74 115q-33 34 -91 60t-127 26q-112 0 -196 -65v267h487v170h-653v-639h166z" />
    <glyph glyph-name="k" unicode="k" horiz-adv-x="1374" 
d="M977 1873q64 -14 70 -73v-1292q-3 -64 -64 -80l-969 -150l2 1753zM0 113l1080 1q109 9 108 127l-2 1825q-7 122 -122 137h-1063v113h1064q234 -15 235 -250v-1829q-4 -211 -222 -237h-1078v113zM253 1113q56 98 158 98q108 0 142.5 -65t34.5 -163q4 -86 -24.5 -166
t-147.5 -88q-145 0 -176 138h-176q20 -166 130 -236.5t229 -70.5q91 0 159.5 40t105.5 86q40 48 58 106t20 178q-2 147 -25 209t-74 115q-33 34 -91 60t-127 26q-112 0 -196 -65v267h487v170h-653v-639h166z" />
    <glyph glyph-name="l" unicode="l" horiz-adv-x="863" 
d="M15 2316h896l1 -113h-897v113zM16 113h898l1 -113h-898zM445 2108l457 -79v-1750l-451 -73l-428 74v1750zM137 925q0 -167 101 -263q101 -94 225 -94q131 0 239 86q108 87 108 290q0 171 -86 250q-86 77 -195 77q-52 0 -89 -15h-3l246 498h-187l-314 -632
q-45 -89 -45 -197zM592 1076q49 -49 49 -148q0 -105 -55 -148q-55 -44 -113 -44q-169 0 -169 192q0 99 49 148q49 46 120 46q70 0 119 -46z" />
    <glyph glyph-name="m" unicode="m" 
d="M129 0v1812h768v-1812h-768zM256 129h512v1557h-512v-1557z" />
    <glyph glyph-name="n" unicode="n" horiz-adv-x="863" 
d="M15 2316h896l1 -113h-897v113zM16 113h898l1 -113h-898zM445 2108l457 -79v-1750l-451 -73l-428 74v1750zM587.5 769.5q-45.5 -47.5 -119.5 -47.5q-75 0 -120.5 47.5t-45.5 132.5v501q0 85 45.5 133t120.5 48q74 0 119.5 -48t45.5 -133v-501q0 -85 -45.5 -132.5zM235 642
q102 -88 233 -88q130 0 232 88t102 251v520q0 163 -102 251.5t-232 88.5q-131 0 -233 -88.5t-102 -251.5v-520q0 -163 102 -251z" />
    <glyph glyph-name="o" unicode="o" 
d="M129 0v1812h768v-1812h-768zM256 129h512v1557h-512v-1557z" />
    <glyph glyph-name="p" unicode="p" 
d="M129 0v1812h768v-1812h-768zM256 129h512v1557h-512v-1557z" />
    <glyph glyph-name="q" unicode="q" 
d="M129 0v1812h768v-1812h-768zM256 129h512v1557h-512v-1557z" />
    <glyph glyph-name="r" unicode="r" 
d="M129 0v1812h768v-1812h-768zM256 129h512v1557h-512v-1557z" />
    <glyph glyph-name="s" unicode="s" horiz-adv-x="1374" 
d="M977 1873q64 -14 70 -73v-1292q-3 -64 -64 -80l-969 -150l2 1753zM0 113l1080 1q109 9 108 127l-2 1825q-7 122 -122 137h-1063v113h1064q234 -15 235 -250v-1829q-4 -211 -222 -237h-1078v113zM102 1434l167 122v-992h174v1185h-174l-167 -129v-186z" />
    <glyph glyph-name="t" unicode="t" 
d="M129 0v1812h768v-1812h-768zM256 129h512v1557h-512v-1557z" />
    <glyph glyph-name="u" unicode="u" 
d="M129 0v1812h768v-1812h-768zM256 129h512v1557h-512v-1557z" />
    <glyph glyph-name="v" unicode="v" horiz-adv-x="1313" 
d="M1329 2033v-1755l-938 150q-61 16 -64 80v1292q6 59 70 73zM1351 0h-1058q-218 26 -222 237v1829q1 235 235 250h1044v-113h-1043q-115 -15 -122 -137l-2 -1825q-1 -118 108 -127l1059 -1zM1305 1405q0 170 -102 269q-103 99 -226 99q-132 0 -240 -90q-108 -89 -108 -297
q0 -175 85 -255q84 -80 197 -80q49 0 89 15h4l-249 -508h189l316 646q45 91 45 201zM847 1252q-49 47 -49 150q0 107 56 153q54 45 113 45q169 0 169 -198q0 -104 -49 -150q-49 -48 -120 -48t-120 48z" />
    <glyph glyph-name="w" unicode="w" 
d="M129 0v1812h768v-1812h-768zM256 129h512v1557h-512v-1557z" />
    <glyph glyph-name="x" unicode="x" horiz-adv-x="1374" 
d="M977 1873q64 -14 70 -73v-1292q-3 -64 -64 -80l-969 -150l2 1753zM0 113l1080 1q109 9 108 127l-2 1825q-7 122 -122 137h-1063v113h1064q234 -15 235 -250v-1829q-4 -211 -222 -237h-1078v113zM226 1406v171h316l-404 -1020h192l403 1020v171h-678v-342h171z" />
    <glyph glyph-name="y" unicode="y" horiz-adv-x="1313" 
d="M1329 2033v-1755l-938 150q-61 16 -64 80v1292q6 59 70 73zM1351 0h-1058q-218 26 -222 237v1829q1 235 235 250h1044v-113h-1043q-115 -15 -122 -137l-2 -1825q-1 -118 108 -127l1059 -1zM794 1406v171h316l-404 -1020h192l403 1020v171h-678v-342h171z" />
    <glyph glyph-name="z" unicode="z" 
d="M129 0v1812h768v-1812h-768zM256 129h512v1557h-512v-1557z" />
    <glyph glyph-name="braceleft" unicode="{" 
d="M129 0v1812h768v-1812h-768zM256 129h512v1557h-512v-1557z" />
    <glyph glyph-name="bar" unicode="|" 
d="M129 0v1812h768v-1812h-768zM256 129h512v1557h-512v-1557z" />
    <glyph glyph-name="braceright" unicode="}" 
d="M129 0v1812h768v-1812h-768zM256 129h512v1557h-512v-1557z" />
    <glyph glyph-name="asciitilde" unicode="~" 
d="M129 0v1812h768v-1812h-768zM256 129h512v1557h-512v-1557z" />
    <glyph glyph-name="section" unicode="&#xa7;" horiz-adv-x="1778" 
d="M1793 2110v-1910l-1402 228q-61 16 -64 80v1292q6 59 70 73zM1831 0h-1538q-218 26 -222 237v1829q1 235 235 250h1524v-113h-1523q-115 -15 -122 -137l-2 -1825q-1 -118 108 -127l1541 -1zM1367 1098q74 0 127.5 -49.5t53.5 -137.5q0 -87 -54 -136.5t-124 -49.5
q-72 0 -111.5 36.5t-63.5 97.5h-168q23 -148 118.5 -225t214.5 -77q150 0 253.5 97.5t103.5 262.5q0 71 -32.5 140t-106.5 117q73 47 99.5 111t26.5 132q0 128 -95 231.5t-252 103.5q-126 0 -220 -93t-104 -217h169q13 71 60.5 106t101.5 35q70 0 120.5 -49t50.5 -121
t-48.5 -119.5t-132.5 -47.5h-58v-148h71z" />
    <glyph glyph-name="Adieresis" unicode="&#xc4;" 
d="M129 0v1812h768v-1812h-768zM256 129h512v1557h-512v-1557z" />
    <glyph glyph-name="Aring" unicode="&#xc5;" 
d="M129 0v1812h768v-1812h-768zM256 129h512v1557h-512v-1557z" />
    <glyph glyph-name="paragraph" unicode="&#xb6;" horiz-adv-x="1074" 
d="M778 -110v1616h-158v-1616h-154v893q-348 0 -348 434q0 176 81 294t226 118h507v-1739h-154z" />
    <glyph glyph-name="periodcentered" unicode="&#xb7;" horiz-adv-x="752" 
d="M355 801q62 0 106 -44t44 -106t-44 -106.5t-106 -44.5t-106 44.5t-44 106.5t44 106t106 44z" />
  </font>
</defs>
</svg>
