<?xml version="1.0" standalone="no"?>
<!DOCTYPE svg PUBLIC "-//W3C//DTD SVG 1.1//EN" "http://www.w3.org/Graphics/SVG/1.1/DTD/svg11.dtd" >
<svg>
<metadata>
Created by FontForge 20090914 at Fri Feb 24 06:44:11 2012
 By root
Copyright 1998 MGRAPHIX, Inc.
</metadata>
<defs>
<font id="Antartic" horiz-adv-x="506" >
  <font-face 
    font-family="Antartic"
    font-weight="400"
    font-stretch="normal"
    units-per-em="1000"
    panose-1="0 0 4 0 0 0 0 0 0 0"
    ascent="800"
    descent="-200"
    x-height="800"
    cap-height="800"
    bbox="-6 -63 806 874"
    underline-thickness="20"
    underline-position="-123"
    unicode-range="U+0020-U+00A0"
  />
<missing-glyph horiz-adv-x="500" 
d="M63 0v800h375v-800h-375zM125 63h250v675h-250v-675z" />
    <glyph glyph-name=".notdef" horiz-adv-x="500" 
d="M63 0v800h375v-800h-375zM125 63h250v675h-250v-675z" />
    <glyph glyph-name=".null" horiz-adv-x="0" 
 />
    <glyph glyph-name="nonmarkingreturn" horiz-adv-x="191" 
 />
    <glyph glyph-name="space" unicode=" " horiz-adv-x="191" 
 />
    <glyph glyph-name="exclam" unicode="!" horiz-adv-x="193" 
d="M130 261h-64v539h64v-539zM130 0h-64v131h64v-131z" />
    <glyph glyph-name="quotedbl" unicode="&#x22;" horiz-adv-x="318" 
d="M255 539h-64v261h64v-261zM126 539h-64v261h64v-261z" />
    <glyph glyph-name="numbersign" unicode="#" horiz-adv-x="628" 
d="M583 193l-32 -64h-95v-129h-64v129h-156v-129h-64v129h-123l32 64h91v155h-123l32 64h91v128h64v-128h156v128h64v-128h127l-32 -64h-95v-155h127zM392 193v155h-156v-155h156z" />
    <glyph glyph-name="dollar" unicode="$" horiz-adv-x="395" 
d="M354 125q0 -54 -40.5 -88t-97.5 -35v-64h-64v64h-148l33 63h167q36 0 60 18t24 50v172q0 34 -21 57t-54 23h-87q-52 5 -87 43.5t-35 90.5v145q0 47 30 88q38 49 102 49h14v65h64v-65h140l-28 -64h-178q-33 0 -57 -25.5t-24 -58.5v-125q0 -33 24 -55.5t58 -22.5h76
q64 0 100 -48q29 -39 29 -86v-191z" />
    <glyph glyph-name="percent" unicode="%" horiz-adv-x="741" 
d="M633 874l-454 -937h-66l454 937h66zM694 133q0 -56 -40 -96.5t-96 -40.5h1q-56 0 -96 40.5t-40 96.5v139q0 56 40 96t96 40h-1q56 0 96 -40t40 -96v-139zM628 143v119q0 35 -19 58.5t-52 23.5v0q-32 0 -51 -23.5t-19 -58.5v-119q0 -35 19 -58.5t51 -23.5v0q33 0 52 23.5
t19 58.5zM321 530q0 -56 -40 -96.5t-96 -40.5h1q-56 0 -96 40.5t-40 96.5v139q0 56 40 96t96 40h-1q56 0 96 -40t40 -96v-139zM254 540v119q0 35 -18.5 58t-51.5 23v0q-32 0 -51 -23t-19 -58v-119q0 -35 19 -58.5t51 -23.5v0q33 0 51.5 23.5t18.5 58.5z" />
    <glyph glyph-name="ampersand" unicode="&#x26;" horiz-adv-x="462" 
d="M414 9l-31 70q11 23 11 56v314h-65v-254l-218 476q-2 7 -2 13q0 22 22 37t52 15h23q33 0 57 -24t24 -57v-39h73v50q0 56 -40 95t-96 39h-51q-56 0 -96 -33t-40 -79q0 -22 14 -49l94 -190h-13q-56 0 -93 -36.5t-37 -91.5l-2 -186q0 -56 40 -95.5t96 -39.5h124q45 0 82 28
l9 -19h63zM250 64h-105q-33 0 -57 23.5t-24 57.5v157q0 33 24 57t57 24h31l136 -291q-25 -28 -62 -28z" />
    <glyph glyph-name="quotesingle" unicode="'" horiz-adv-x="191" 
d="M127 539h-64v261h64v-261z" />
    <glyph glyph-name="parenleft" unicode="(" horiz-adv-x="262" 
d="M202 0h-13q-56 0 -96 40t-40 96v529q0 56 40 95.5t96 39.5h13v-64h-3q-34 0 -58 -24t-24 -57v-509q0 -34 24 -58.5t58 -24.5h3v-63z" />
    <glyph glyph-name="parenright" unicode=")" horiz-adv-x="280" 
d="M210 136q0 -56 -40 -96t-95 -40h-14v63h4q33 0 57 24.5t24 58.5v509q0 33 -24 57t-57 24h-4v64h14q55 0 95 -39.5t40 -95.5v-529z" />
    <glyph glyph-name="asterisk" unicode="*" horiz-adv-x="537" 
d="M483 599l-26 -52h-142l95 -186h-52l-93 182l-93 -182h-53l95 186h-157l26 52h153l-103 201h52l80 -155l79 155h52l-103 -201h190z" />
    <glyph glyph-name="plus" unicode="+" horiz-adv-x="605" 
d="M577 414l-32 -64h-204v-235h-64v235h-244l32 64h212v240h64v-240h236z" />
    <glyph glyph-name="comma" unicode="," horiz-adv-x="324" 
d="M246 177l-112 -240h-65l112 240h65z" />
    <glyph glyph-name="hyphen" unicode="-" horiz-adv-x="435" 
d="M377 412l-32 -64h-277l32 64h277z" />
    <glyph glyph-name="hyphen" unicode="&#x2010;" horiz-adv-x="435" 
d="M377 412l-32 -64h-277l32 64h277z" />
    <glyph glyph-name="period" unicode="." horiz-adv-x="296" 
d="M147 0h-64v131h64v-131z" />
    <glyph glyph-name="slash" unicode="/" horiz-adv-x="587" 
d="M520 862l-448 -924h-65l448 924h65z" />
    <glyph glyph-name="zero" unicode="0" 
d="M429 137q0 -56 -40 -96.5t-96 -40.5h-81q-56 0 -95.5 40.5t-39.5 96.5v528q0 56 39.5 95.5t95.5 39.5h81q56 0 96 -39.5t40 -95.5v-528zM363 146v509q0 34 -24 57.5t-58 23.5h-59q-34 0 -57.5 -23.5t-23.5 -57.5v-509q0 -33 23.5 -57t57.5 -24h59q34 0 58 24t24 57z" />
    <glyph glyph-name="one" unicode="1" 
d="M333 0h-64v736h-96l32 64h128v-800z" />
    <glyph glyph-name="two" unicode="2" horiz-adv-x="504" 
d="M292 736q30 0 52.5 -14t22.5 -36q0 -6 -2 -13l-305 -673h352l32 65h-294l273 575q14 23 14 49v0q0 46 -40 78.5t-96 32.5h-200l-32 -64h223z" />
    <glyph glyph-name="three" unicode="3" 
d="M432 136q0 -55 -40 -95.5t-96 -40.5h-223l32 65h175q34 0 58 26.5t24 63.5v139q0 37 -24 64t-58 27h-160l31 63h128q34 0 58 23t24 57v125q0 34 -24 58.5t-58 24.5h-191l32 64h176q56 0 96 -40t40 -95v-145q0 -73 -58 -104q58 -31 58 -135v-145zM200 65q0 -1 -1 0v0h1z
" />
    <glyph glyph-name="four" unicode="4" 
d="M481 385l-32 -64h-66v-321h-64v321h-295l295 479h64v-415h98zM319 385v309l-191 -309h191z" />
    <glyph glyph-name="five" unicode="5" 
d="M428 121q0 -54 -40.5 -87.5t-97.5 -33.5h-209l32 65h167q84 0 84 65v171q0 35 -21.5 59.5t-54.5 24.5h-86q-52 5 -88 42t-36 89l1 284h349l-32 -64h-255l1 -211q0 -33 24.5 -55t58.5 -22h76q64 0 99 -48q28 -39 28 -88v-191z" />
    <glyph glyph-name="six" unicode="6" 
d="M428 135q0 -55 -39.5 -95t-95.5 -40h-81q-55 0 -95 40t-40 95v528q0 56 40 96.5t95 40.5h214l-32 -64h-172q-33 0 -57.5 -24.5t-24.5 -58.5v-237l30.5 21t31.5 11h95q56 0 93.5 -36t37.5 -91v-186zM364 145v157q0 33 -23.5 58t-57.5 25h-61q-33 0 -57.5 -25t-24.5 -58
v-157q0 -34 24 -57t58 -23h61q34 0 57.5 23t23.5 57z" />
    <glyph glyph-name="seven" unicode="7" horiz-adv-x="504" 
d="M248 448h-42l-29 -63h46l-155 -385h57l158 385h45l29 63h-49l143 352h-358l-33 -64h302z" />
    <glyph glyph-name="eight" unicode="8" 
d="M436 137q0 -56 -40 -96.5t-96 -40.5h-94q-56 0 -96 40.5t-40 96.5v145q0 103 58 134q-58 31 -58 104v145q0 56 40 95.5t96 39.5h94q56 0 96 -39.5t40 -95.5v-145q0 -73 -58 -104q58 -31 58 -134v-145zM363 529v125q0 33 -24 57.5t-57 24.5h-60q-33 0 -57 -24.5t-24 -57.5
v-125q0 -33 24 -57t57 -24h60q34 0 57.5 24t23.5 57zM363 147v157q0 34 -23.5 57.5t-57.5 23.5h-60q-33 0 -57 -23.5t-24 -57.5v-157q0 -34 24 -58t57 -24h60q34 0 57.5 24t23.5 58z" />
    <glyph glyph-name="nine" unicode="9" 
d="M428 137q0 -56 -39.5 -96.5t-95.5 -40.5h-214l32 65h172q34 0 58.5 24t24.5 58v238q-10 -11 -21.5 -22t-41.5 -11h-95q-55 0 -92 36t-38 91l-1 186q0 56 40 95.5t95 39.5h81q56 0 95.5 -39.5t39.5 -95.5v-528zM364 498v158q0 33 -23.5 56.5t-57.5 23.5h-61
q-33 0 -57 -23.5t-24 -56.5v-158q0 -33 24 -57t57 -24h61q34 0 57.5 24t23.5 57z" />
    <glyph glyph-name="colon" unicode=":" horiz-adv-x="199" 
d="M133 350h-59v121h59v-121zM133 109h-59v122h59v-122z" />
    <glyph glyph-name="semicolon" unicode=";" horiz-adv-x="280" 
d="M207 349h-59v121h59v-121zM204 224l-104 -224h-61l104 224h61z" />
    <glyph glyph-name="less" unicode="&#x3c;" horiz-adv-x="312" 
d="M249 800l-145 -403l143 -397h-64l-143 397l145 403h64z" />
    <glyph glyph-name="equal" unicode="=" horiz-adv-x="392" 
d="M356 412l-32 -64h-277l32 64h277zM356 194l-32 -64h-277l32 64h277z" />
    <glyph glyph-name="greater" unicode="&#x3e;" horiz-adv-x="315" 
d="M255 397l-142 -397h-64l142 397l-144 403h64z" />
    <glyph glyph-name="question" unicode="?" horiz-adv-x="381" 
d="M323 517q0 -53 -35.5 -91.5t-87.5 -42.5h6q-33 0 -54 -23.5t-21 -57.5v-40h-65v51q0 48 28 87q36 48 100 48h-17q34 0 58.5 22.5t24.5 55.5v125q0 34 -24 59.5t-57 25.5h-179l31 64h160q64 0 102 -49q30 -41 30 -89v-145zM131 0h-65v131h65v-131z" />
    <glyph glyph-name="at" unicode="@" horiz-adv-x="887" 
d="M473 536q-73 0 -127 -86q-47 -76 -47 -155q0 -39 20 -66q22 -30 58 -30q76 0 127 116q40 88 40 148q0 30 -20 51.5t-51 21.5zM586 529l14 47h69l-103 -305q-13 -38 -13 -52q0 -26 30 -26q55 0 106 59q61 70 61 178q0 83 -50 148q-78 103 -257 103q-133 0 -227 -93.5
t-94 -226.5t93.5 -226.5t227.5 -93.5q192 0 284 133h60q-48 -88 -140 -138.5t-204 -50.5q-156 0 -266.5 110t-110.5 267q0 156 110.5 265.5t266.5 109.5q215 0 309 -138q54 -81 54 -169q0 -150 -90 -231q-69 -62 -147 -62q-70 0 -87 53q-49 -51 -120 -51q-63 0 -101.5 44
t-38.5 107q0 110 69 204q75 102 181 102q82 0 114 -67z" />
    <glyph glyph-name="A" unicode="A" horiz-adv-x="541" 
d="M515 224l-32 -64h-40l37 -160h-62l-38 160h-246l-38 -160h-63l39 160h-68l32 64h51l139 576h65l136 -576h88zM364 224l-107 446l-108 -446h215z" />
    <glyph glyph-name="B" unicode="B" horiz-adv-x="449" 
d="M390 135q0 -56 -40 -95.5t-96 -39.5h-190v384h-65l33 64h32v352h190q56 0 96 -40t40 -96v-145q0 -68 -68 -104q31 -17 49.5 -55.5t18.5 -79.5v-145zM322 529v126q0 33 -25 57t-58 24h-111v-288h111q33 0 58 24t25 57zM322 154v139q0 37 -25 64t-58 27h-111v-320h111
q33 0 58 26.5t25 63.5z" />
    <glyph glyph-name="C" unicode="C" horiz-adv-x="350" 
d="M322 64l-32 -64h-153q-56 0 -96 39.5t-40 95.5v529q0 56 40 96t96 40h185l-32 -64h-144q-33 0 -57 -24t-24 -57v-501q0 -37 24 -63.5t57 -26.5h176z" />
    <glyph glyph-name="D" unicode="D" horiz-adv-x="417" 
d="M352 136q0 -56 -39.5 -96t-96.5 -40h-216v800h216q57 0 96.5 -39.5t39.5 -95.5v-529zM288 154v501q0 33 -24 57t-57 24h-142v-672h142q33 0 57 26.5t24 63.5z" />
    <glyph glyph-name="E" unicode="E" horiz-adv-x="434" 
d="M390 64l-32 -64h-287v384h-64l32 64h32v352h319l-32 -64h-223v-288h255l-32 -64h-223v-320h255z" />
    <glyph glyph-name="F" unicode="F" horiz-adv-x="443" 
d="M387 448l-32 -64h-225v-384h-64v384h-64l32 64h32v352h321l-32 -64h-225v-288h257z" />
    <glyph glyph-name="G" unicode="G" horiz-adv-x="394" 
d="M354 800l-34 -64h-174q-34 0 -57.5 -24t-23.5 -57v-501q0 -37 23.5 -63.5t57.5 -26.5h160v320h-116l35 64h142v-448h-231q-56 0 -95.5 40t-39.5 96v529q0 56 39.5 95.5t95.5 39.5h218z" />
    <glyph glyph-name="H" unicode="H" horiz-adv-x="529" 
d="M480 448l-32 -64h-31v-384h-64v384h-224v-384h-64v384h-64l32 64h32v352h64v-352h224v352h64v-352h63z" />
    <glyph glyph-name="I" unicode="I" horiz-adv-x="128" 
d="M67 0h-64v800h64v-800z" />
    <glyph glyph-name="J" unicode="J" horiz-adv-x="433" 
d="M370 136q0 -55 -45.5 -95.5t-102.5 -40.5h-81q-55 0 -95 40t-40 96v23h64v-14q0 -34 23.5 -57.5t57.5 -23.5h61q34 0 58 23.5t24 57.5v655h76v-664z" />
    <glyph glyph-name="K" unicode="K" horiz-adv-x="424" 
d="M0 800h64v-800h-64v800zM325 0h62l-254 418l254 382h-66l-257 -382z" />
    <glyph glyph-name="L" unicode="L" horiz-adv-x="391" 
d="M352 64l-32 -64h-320v800h64v-736h288z" />
    <glyph glyph-name="M" unicode="M" horiz-adv-x="509" 
d="M448 0h-62v640l-127 -640h-65l-128 640v-640h-65v800h95l130 -642l128 642h94v-800z" />
    <glyph glyph-name="N" unicode="N" horiz-adv-x="383" 
d="M321 2h-64l-193 639v-639h-63v798h95l161 -566v566h64v-798z" />
    <glyph glyph-name="O" unicode="O" horiz-adv-x="417" 
d="M353 136q0 -56 -40 -96t-96 -40h-81q-55 0 -95 40t-40 96v529q0 56 40 95.5t95 39.5h81q56 0 96 -39.5t40 -95.5v-529zM287 146v509q0 34 -24 57.5t-58 23.5h-59q-34 0 -57.5 -23.5t-23.5 -57.5v-509q0 -34 23.5 -58.5t57.5 -24.5h59q34 0 58 24.5t24 58.5z" />
    <glyph glyph-name="P" unicode="P" horiz-adv-x="428" 
d="M390 519q0 -48 -31 -87q-38 -49 -102 -49q-1 1 -126 0v-383h-67v383h-63l31 65h32v352h191q55 0 95 -40t40 -96v-145zM326 528v126q0 33 -24 57.5t-57 24.5h-114v-288h114q34 0 57.5 23.5t23.5 56.5z" />
    <glyph glyph-name="Q" unicode="Q" horiz-adv-x="399" 
d="M360 59l-30 -59h-52q-69 0 -107 59h-42q-52 0 -88.5 37t-36.5 89v490q0 52 36.5 88.5t88.5 36.5h76q52 0 88.5 -36.5t36.5 -88.5v-490q0 -40 -22 -76t-56 -50q7 -4 17 -2q17 2 18 2h73zM269 194v472q0 31 -22 52.5t-53 21.5h-56q-31 0 -53 -21.5t-22 -52.5v-472
q0 -32 22 -54.5t53 -22.5h56q31 0 53 22.5t22 54.5z" />
    <glyph glyph-name="R" unicode="R" horiz-adv-x="460" 
d="M411 0h-64l-175 383h-41v-383h-67v383h-63l31 65h32v352h191q55 0 95 -40t40 -96v-145q0 -48 -31 -87q-38 -49 -102 -49q-5 1 -20 0zM326 528v126q0 33 -24 57.5t-57 24.5h-114v-288h114q34 0 57.5 23.5t23.5 56.5z" />
    <glyph glyph-name="S" unicode="S" horiz-adv-x="392" 
d="M350 123q0 -55 -41 -89t-99 -34h-210l33 63h168q35 0 59.5 18t24.5 50v172q0 33 -21.5 56.5t-54.5 23.5h-87q-51 5 -86.5 43.5t-35.5 91.5v145q0 48 30 88q38 49 102 49q1 -1 218 0l-28 -64h-178q-33 0 -57 -25.5t-24 -58.5v-126q0 -33 24.5 -55.5t57.5 -22.5h76
q64 0 100 -48q29 -38 29 -86v-191z" />
    <glyph glyph-name="T" unicode="T" horiz-adv-x="445" 
d="M413 800l-31 -64h-159v-736h-64v736h-159l33 64h380z" />
    <glyph glyph-name="U" unicode="U" horiz-adv-x="419" 
d="M356 135q0 -56 -40 -95.5t-96 -39.5h-81q-56 0 -95.5 39.5t-39.5 95.5v665h64v-656q0 -33 23.5 -57t56.5 -24h60q34 0 58 24t24 57v656h66v-665z" />
    <glyph glyph-name="V" unicode="V" horiz-adv-x="494" 
d="M452 800l-189 -800h-65l-193 800h63l161 -670l161 670h62z" />
    <glyph glyph-name="W" unicode="W" horiz-adv-x="627" 
d="M574 800l-92 -800h-61l-136 646l-129 -646h-57l-99 800h64l67 -586l109 523h90l114 -540l66 603h64z" />
    <glyph glyph-name="X" unicode="X" horiz-adv-x="399" 
d="M352 800l-144 -403l142 -397h-64l-110 307l-110 -307h-64l142 397l-144 403h64l112 -314l112 314h64z" />
    <glyph glyph-name="Y" unicode="Y" horiz-adv-x="422" 
d="M383 800l-160 -415v-385h-62v385l-163 415h65l128 -320l130 320h62z" />
    <glyph glyph-name="Z" unicode="Z" horiz-adv-x="431" 
d="M394 800l-293 -737h287l-32 -63h-345l294 735h-301l32 65h358z" />
    <glyph glyph-name="bracketleft" unicode="[" horiz-adv-x="259" 
d="M119 64v672h86v64h-152v-800h152v64h-86z" />
    <glyph glyph-name="backslash" unicode="\" horiz-adv-x="597" 
d="M515 -63h-65l-448 924h64z" />
    <glyph glyph-name="bracketright" unicode="]" horiz-adv-x="285" 
d="M153 64v672h-86v64h152v-800h-152v64h86z" />
    <glyph glyph-name="asciicircum" unicode="^" horiz-adv-x="368" 
d="M305 577l-129 141l-126 -141v81l126 142l129 -144v-79z" />
    <glyph glyph-name="underscore" unicode="_" horiz-adv-x="623" 
d="M560 0h-560v64h560v-64z" />
    <glyph glyph-name="grave" unicode="`" horiz-adv-x="287" 
d="M221 559h-65l-112 240h65z" />
    <glyph glyph-name="a" unicode="a" horiz-adv-x="541" 
d="M515 224l-32 -64h-40l37 -160h-62l-38 160h-246l-38 -160h-63l39 160h-68l32 64h51l139 576h65l136 -576h88zM364 224l-107 446l-108 -446h215z" />
    <glyph glyph-name="b" unicode="b" horiz-adv-x="449" 
d="M390 135q0 -56 -40 -95.5t-96 -39.5h-190v384h-65l33 64h32v352h190q56 0 96 -40t40 -96v-145q0 -68 -68 -104q31 -17 49.5 -55.5t18.5 -79.5v-145zM322 529v126q0 33 -25 57t-58 24h-111v-288h111q33 0 58 24t25 57zM322 154v139q0 37 -25 64t-58 27h-111v-320h111
q33 0 58 26.5t25 63.5z" />
    <glyph glyph-name="c" unicode="c" horiz-adv-x="350" 
d="M322 64l-32 -64h-153q-56 0 -96 39.5t-40 95.5v529q0 56 40 96t96 40h185l-32 -64h-144q-33 0 -57 -24t-24 -57v-501q0 -37 24 -63.5t57 -26.5h176z" />
    <glyph glyph-name="d" unicode="d" horiz-adv-x="417" 
d="M352 136q0 -56 -39.5 -96t-96.5 -40h-216v800h216q57 0 96.5 -39.5t39.5 -95.5v-529zM288 154v501q0 33 -24 57t-57 24h-142v-672h142q33 0 57 26.5t24 63.5z" />
    <glyph glyph-name="e" unicode="e" horiz-adv-x="434" 
d="M390 64l-32 -64h-287v384h-64l32 64h32v352h319l-32 -64h-223v-288h255l-32 -64h-223v-320h255z" />
    <glyph glyph-name="f" unicode="f" horiz-adv-x="443" 
d="M387 448l-32 -64h-225v-384h-64v384h-64l32 64h32v352h321l-32 -64h-225v-288h257z" />
    <glyph glyph-name="g" unicode="g" horiz-adv-x="394" 
d="M354 800l-34 -64h-174q-34 0 -57.5 -24t-23.5 -57v-501q0 -37 23.5 -63.5t57.5 -26.5h160v320h-116l35 64h142v-448h-231q-56 0 -95.5 40t-39.5 96v529q0 56 39.5 95.5t95.5 39.5h218z" />
    <glyph glyph-name="h" unicode="h" horiz-adv-x="529" 
d="M480 448l-32 -64h-31v-384h-64v384h-224v-384h-64v384h-64l32 64h32v352h64v-352h224v352h64v-352h63z" />
    <glyph glyph-name="i" unicode="i" horiz-adv-x="128" 
d="M67 0h-64v800h64v-800z" />
    <glyph glyph-name="j" unicode="j" horiz-adv-x="433" 
d="M370 136q0 -55 -45.5 -95.5t-102.5 -40.5h-81q-55 0 -95 40t-40 96v23h64v-14q0 -34 23.5 -57.5t57.5 -23.5h61q34 0 58 23.5t24 57.5v655h76v-664z" />
    <glyph glyph-name="k" unicode="k" horiz-adv-x="424" 
d="M64 458v342h-64v-800h64v370l256 -370h70l-287 415l287 385h-70z" />
    <glyph glyph-name="l" unicode="l" horiz-adv-x="391" 
d="M352 64l-32 -64h-320v800h64v-736h288z" />
    <glyph glyph-name="m" unicode="m" horiz-adv-x="615" 
d="M575 0h-64l-67 605l-113 -541h-90l-109 523l-67 -587h-64l99 800h57l129 -644l135 644h62z" />
    <glyph glyph-name="n" unicode="n" horiz-adv-x="383" 
d="M321 2h-64l-193 639v-639h-63v798h95l161 -566v566h64v-798z" />
    <glyph glyph-name="o" unicode="o" horiz-adv-x="417" 
d="M353 136q0 -56 -40 -96t-96 -40h-81q-55 0 -95 40t-40 96v529q0 56 40 95.5t95 39.5h81q56 0 96 -39.5t40 -95.5v-529zM287 146v509q0 34 -24 57.5t-58 23.5h-59q-34 0 -57.5 -23.5t-23.5 -57.5v-509q0 -34 23.5 -58.5t57.5 -24.5h59q34 0 58 24.5t24 58.5z" />
    <glyph glyph-name="p" unicode="p" horiz-adv-x="428" 
d="M390 519q0 -48 -31 -87q-38 -49 -102 -49q-1 1 -126 0v-383h-67v383h-63l31 65h32v352h191q55 0 95 -40t40 -96v-145zM326 528v126q0 33 -24 57.5t-57 24.5h-114v-288h114q34 0 57.5 23.5t23.5 56.5z" />
    <glyph glyph-name="q" unicode="q" horiz-adv-x="399" 
d="M360 59l-30 -59h-52q-69 0 -107 59h-42q-52 0 -88.5 37t-36.5 89v490q0 52 36.5 88.5t88.5 36.5h76q52 0 88.5 -36.5t36.5 -88.5v-490q0 -40 -22 -76t-56 -50q7 -4 17 -2q17 2 18 2h73zM269 194v472q0 31 -22 52.5t-53 21.5h-56q-31 0 -53 -21.5t-22 -52.5v-472
q0 -32 22 -54.5t53 -22.5h56q31 0 53 22.5t22 54.5z" />
    <glyph glyph-name="r" unicode="r" horiz-adv-x="451" 
d="M391 0h-67v294q0 37 -23.5 63t-57.5 26h-111v-383h-64v383h-65l34 65h31v352h191q56 0 94 -39.5t38 -95.5v-145q0 -41 -11.5 -64t-42.5 -40q21 -15 36 -48q11 -25 16 -54l2 -25v-289zM324 530v125q0 34 -23.5 57.5t-57.5 23.5h-111v-288h111q34 0 57.5 24t23.5 58z" />
    <glyph glyph-name="s" unicode="s" horiz-adv-x="392" 
d="M350 123q0 -55 -41 -89t-99 -34h-210l33 63h168q35 0 59.5 18t24.5 50v172q0 33 -21.5 56.5t-54.5 23.5h-87q-51 5 -86.5 43.5t-35.5 91.5v145q0 48 30 88q38 49 102 49q1 -1 218 0l-28 -64h-178q-33 0 -57 -25.5t-24 -58.5v-126q0 -33 24.5 -55.5t57.5 -22.5h76
q64 0 100 -48q29 -38 29 -86v-191z" />
    <glyph glyph-name="t" unicode="t" horiz-adv-x="445" 
d="M407 800l-31 -64h-159v-736h-64v736h-159l33 64h380z" />
    <glyph glyph-name="u" unicode="u" horiz-adv-x="419" 
d="M356 135q0 -56 -40 -95.5t-96 -39.5h-81q-56 0 -95.5 39.5t-39.5 95.5v665h64v-656q0 -33 23.5 -57t56.5 -24h60q34 0 58 24t24 57v656h66v-665z" />
    <glyph glyph-name="v" unicode="v" horiz-adv-x="494" 
d="M452 800l-189 -800h-65l-193 800h63l161 -670l161 670h62z" />
    <glyph glyph-name="w" unicode="w" horiz-adv-x="627" 
d="M574 800l-92 -800h-61l-136 646l-129 -646h-57l-99 800h64l67 -586l109 523h90l114 -540l66 603h64z" />
    <glyph glyph-name="x" unicode="x" horiz-adv-x="399" 
d="M352 800l-144 -403l142 -397h-64l-110 307l-110 -307h-64l142 397l-144 403h64l112 -314l112 314h64z" />
    <glyph glyph-name="y" unicode="y" horiz-adv-x="422" 
d="M383 800l-160 -415v-385h-62v385l-163 415h65l128 -320l130 320h62z" />
    <glyph glyph-name="z" unicode="z" horiz-adv-x="431" 
d="M394 800l-293 -737h287l-32 -63h-345l294 735h-301l32 65h358z" />
    <glyph glyph-name="braceleft" unicode="{" horiz-adv-x="335" 
d="M284 0q-56 0 -100 40.5t-44 95.5v136l-140 125l140 126v142q0 55 44 95t100 40v0v-64q-33 0 -56.5 -24t-23.5 -57l2 -161l-120 -97l119 -105l-1 -146q0 -34 23.5 -58.5t56.5 -24.5v0v-63z" />
    <glyph glyph-name="bar" unicode="|" horiz-adv-x="198" 
d="M133 -63h-64v920h64v-920z" />
    <glyph glyph-name="braceright" unicode="}" horiz-adv-x="324" 
d="M284 397l-140 -125v-136q0 -55 -43.5 -95.5t-100.5 -40.5v0v63q33 0 57 24.5t23 58.5l-1 146l120 105l-121 97l2 161q1 33 -23 57t-57 24v0v64q57 0 100.5 -40t43.5 -95v-142z" />
    <glyph glyph-name="asciitilde" unicode="~" horiz-adv-x="500" 
d="M161 332q31 0 95.5 -35t85.5 -35q44 0 81 83l34 -47q-49 -111 -116 -111q-25 0 -111 44q-49 25 -69 25q-28 0 -51 -30q-13 -17 -32 -60l-34 48q53 118 117 118z" />
    <glyph glyph-name="nonbreakingspace" unicode="&#xa0;" horiz-adv-x="191" 
 />
    </font>
</defs>
</svg>
